<svg xmlns="http://www.w3.org/2000/svg" viewBox="0 0 71.69 70.15"><defs><style>.cls-1{fill:#231f20;}</style></defs><g id="Calque_2" data-name="Calque 2"><g id="Calque_4" data-name="Calque 4"><path class="cls-1" d="M62.84,47.25a14.94,14.94,0,0,1-2.64,7.16h0A14.64,14.64,0,0,1,48,61.09,14.93,14.93,0,0,1,46.39,61l-.28,0L46,61a.52.52,0,0,1-.34-.55.26.26,0,0,1,0-.11h0a.53.53,0,0,1,.22-.27.56.56,0,0,1,.32-.06l.43,0h.09a2.69,2.69,0,0,0,.4,0,13.61,13.61,0,0,0,12.19-6.2c2.82-4.27,3.29-8.57,1.29-11.78a7.32,7.32,0,0,0-5.52-3.45h0l-.42,0a7.48,7.48,0,0,0-.82,0l-.44,0h-.08a.51.51,0,0,1-.49-.45,0,0,0,0,0,0,0h0a.11.11,0,0,1,0,0h0a.51.51,0,0,1,.44-.48h0l.54,0a7.69,7.69,0,0,1,1,0,6.92,6.92,0,0,1,1,.11,8.09,8.09,0,0,1,.82.19l.42.13a8.24,8.24,0,0,1,2.07,1c.18.12.36.26.53.4a8.34,8.34,0,0,1,1.8,2.07A9.42,9.42,0,0,1,62.84,47.25Z"/><path class="cls-1" d="M57.09,51.35c-1.41,2.46-4.13,5.07-7.61,5.18h-.32l-.11,0h0a.51.51,0,0,1-.37-.5.13.13,0,0,1,0-.06.48.48,0,0,1,.17-.32h0v0l.05,0H50c2.79-.35,5-2.54,6.17-4.61,1.35-2.36,1.63-4.85.73-6.35a3.65,3.65,0,0,0-3.33-1.56h-.67l-.08,0h0l0,0h0l0,0h0v-.06l0,0v0s0,0,0,0h0a.36.36,0,0,1,0-.1h0a.51.51,0,0,1,0-.13h0a.5.5,0,0,1,.47-.4h.58A4.54,4.54,0,0,1,57.81,44C58.92,45.81,58.65,48.63,57.09,51.35Z"/><path class="cls-1" d="M5.34,39.61h0Z"/><path class="cls-1" d="M49.59,39.34a3.47,3.47,0,0,1-.54.81h0l0,0h0a5.88,5.88,0,0,1-1.13.94l-.62.37-.63.33a18.94,18.94,0,0,1-2.62,1,38.86,38.86,0,0,1-5.41,1.24c-1.83.3-3.66.49-5.5.63-.92.08-1.84.12-2.76.16l-1.38,0c-.46,0-.92,0-1.38,0a73.93,73.93,0,0,1-11-.69l-.76-.11h-.08c-1.55-.24-3.09-.54-4.61-.93L10.45,43l-.67-.21c-.44-.13-.88-.3-1.32-.46l-.65-.28-.32-.14-.32-.16-.31-.16c-.1-.06-.21-.11-.31-.18L5.94,41l.21.06h0L5.94,41c-.2-.14-.39-.29-.58-.45a3.25,3.25,0,0,1-.27-.26l-.24-.26h0a2.89,2.89,0,0,1-.47-.77,2.1,2.1,0,0,1,.09-1.81,3.26,3.26,0,0,1,.52-.7A5.78,5.78,0,0,1,6,36l.3-.17a11.7,11.7,0,0,1,1.49-.67.06.06,0,0,1,.07,0,.06.06,0,0,1,0,.07A13.41,13.41,0,0,0,6.47,36l-.27.2a5.47,5.47,0,0,0-.9.83,2,2,0,0,0-.53,1.29,1.7,1.7,0,0,0,.34,1l0,0,.17.21h0l0,0,0,0,0,0h0l0,0,0,0h0l.22.23.08.07.17.14c.17.13.34.26.53.38l-.2-.07h0l.2.07a17.88,17.88,0,0,0,3.94,1.67l1,.3.68.18h0l.6.15.17,0,.41.09,1.36.28,1.28.22.84.13q1.74.24,3.48.39c.52,0,1.05.09,1.57.12,2,.13,3.91.18,5.87.17l1.37,0,1.37,0c.91-.05,1.82-.1,2.73-.17q2.73-.23,5.42-.67l1.77-.33c1.19-.25,2.37-.54,3.53-.9l.09,0c.4-.12.79-.27,1.19-.41.21-.07.41-.17.62-.25s.41-.17.61-.27l.59-.3.57-.34a4.67,4.67,0,0,0,1-.78h0A1.81,1.81,0,0,0,49,38.33a1.63,1.63,0,0,0-.19-.69,3.44,3.44,0,0,0-.46-.64,4.11,4.11,0,0,0-.3-.29c-.1-.1-.21-.19-.32-.28s-.45-.34-.69-.51c-.49-.32-1-.61-1.52-.91a.08.08,0,0,1,0-.08.09.09,0,0,1,.07,0,9.63,9.63,0,0,1,1.7.62c.13.07.27.13.4.21s.27.15.4.23a6.74,6.74,0,0,1,.75.57,3.55,3.55,0,0,1,.62.76,2.56,2.56,0,0,1,.24.56h0a2.14,2.14,0,0,1,.08.44A2.22,2.22,0,0,1,49.59,39.34Z"/><path class="cls-1" d="M53.57,42.94h-.63l-.08,0h0l0,0h0l0,0h0v-.06l0,0v0s0,0,0,0h0a.36.36,0,0,1,0-.1,34.94,34.94,0,0,1-3.8,13.18h0v0l.05,0H50a36.16,36.16,0,0,0,3.57-12.52ZM21.26,29.49h0c-1.37.09-2.71.21-4,.36-1.08.13-3.34.49-4.36.66,0,0,1.4.7,1.46.77l2.92-.39a45.63,45.63,0,0,1,5-.49c1.87-.08,2.89,0,3.29-.06.09-.09,1.45-.68-.26-1Zm32.62,8.08c-.16-2.29-3-4.38-8.1-5.91a58.38,58.38,0,0,0-11.87-2.08c-2.24-.18-4.58-.27-7-.27h-1l-1.67,0a6.56,6.56,0,0,1,1,.76l.25.23h1.4c2.71,0,5.27.11,7.64.33a60.94,60.94,0,0,1,7.91,1.19h0c.64.14,1.26.29,1.85.45h0c5.39,1.45,8.53,3.5,8.53,5.47v.33h0v0h0c0,1.44-.08,2.82-.2,4.16h0s0,.08,0,.13h0a34.94,34.94,0,0,1-3.8,13.18h0l-.17.32A27.34,27.34,0,0,1,45.92,60l-.22.27h0a24.43,24.43,0,0,1-18.76,8.84C14.46,69.13,1,59.32,1,37.77c0-1.46,1.72-3,4.8-4.23a35.5,35.5,0,0,1,5.65-1.71c.94-.21,1.94-.4,3-.57-.05-.07-.11-.13-.17-.2a5.69,5.69,0,0,0-.7-.68l-1.6.31q-1.28.25-2.46.57l-1.43.4c-.67.2-1.3.41-1.9.64-.39.14-.77.29-1.13.45a12.12,12.12,0,0,0-4,2.62,3.7,3.7,0,0,0-1,2.4C0,47.75,2.9,56.13,8.4,62a25.22,25.22,0,0,0,37.09,0q.46-.5.9-1l.18-.22c.2-.24.4-.49.59-.74a29.2,29.2,0,0,0,2.32-3.51c0-.08.08-.16.13-.24l.43-.83a36.16,36.16,0,0,0,3.57-12.52l0-.24c0-.26,0-.52.07-.78.09-1.09.15-2.2.17-3.33v-1Zm-.31,5.37h-.63l-.08,0h0l0,0h0l0,0h0v-.06l0,0v0s0,0,0,0h0a.36.36,0,0,1,0-.1,34.94,34.94,0,0,1-3.8,13.18h0v0l.05,0H50a36.16,36.16,0,0,0,3.57-12.52Z"/><path class="cls-1" d="M25.94,23.32a13.85,13.85,0,0,1-5.44-.94,3.34,3.34,0,0,1-2-1.77,4.28,4.28,0,0,1,.39-3.23c1.36-2.77,4.73-5.22,9.26-6.72,5.13-1.7,7.85-.06,8.66.58,2.48-.9,21-7.57,28.93-10.53,2.1-.78,4.26-1.36,5.48.75A2.83,2.83,0,0,1,71.5,4a4.53,4.53,0,0,1-3,2.46c-9.46,3-27.28,9-29.79,9.81-.18,1-1,3.92-5,5.56A20.68,20.68,0,0,1,25.94,23.32Zm6.48-12.41a12.35,12.35,0,0,0-3.92.7c-6.06,2-8.08,5-8.67,6.21a3.33,3.33,0,0,0-.35,2.46,2.51,2.51,0,0,0,1.42,1.19c2.62,1.16,8,1.26,12.46-.59,4.14-1.71,4.41-4.9,4.42-5l0-.33.32-.11c.2-.06,20-6.66,30.1-9.91a3.63,3.63,0,0,0,2.35-1.87A1.86,1.86,0,0,0,70.4,2C69.71.78,68.68.7,66.13,1.65c-8.5,3.16-29,10.55-29.22,10.63l-.3.11-.23-.23A5.59,5.59,0,0,0,32.42,10.91Z"/><path class="cls-1" d="M21.52,29.88a.49.49,0,0,1-.38-.18l-1.53-1.78a.51.51,0,0,1,.06-.71.49.49,0,0,1,.7.06l1.53,1.78a.51.51,0,0,1,0,.71A.5.5,0,0,1,21.52,29.88Z"/><path class="cls-1" d="M24.45,29a.5.5,0,0,1-.3-.9l2.05-1.54a.5.5,0,0,1,.7.1.5.5,0,0,1-.1.7l-2.05,1.54A.54.54,0,0,1,24.45,29Z"/><path class="cls-1" d="M32.89,29a.5.5,0,0,1-.5-.5V26.31a.5.5,0,0,1,.5-.5.51.51,0,0,1,.5.5v2.18A.51.51,0,0,1,32.89,29Z"/><path class="cls-1" d="M28.29,29.88A.5.5,0,0,1,28,29l1.53-.9a.49.49,0,0,1,.68.18.51.51,0,0,1-.18.69l-1.53.89A.45.45,0,0,1,28.29,29.88Z"/><path class="cls-1" d="M26.5,33.07a.5.5,0,0,1-.44-.26l-1-1.92a.5.5,0,0,1,.88-.47l1,1.91a.5.5,0,0,1-.2.68A.53.53,0,0,1,26.5,33.07Z"/><path class="cls-1" d="M21.52,34.48l-.15,0a.5.5,0,0,1-.32-.63l.77-2.36a.49.49,0,0,1,.63-.32.5.5,0,0,1,.32.63L22,34.13A.5.5,0,0,1,21.52,34.48Z"/><path class="cls-1" d="M32.38,32.11H30.46a.5.5,0,0,1-.5-.5.5.5,0,0,1,.5-.5h1.92a.51.51,0,0,1,.5.5A.5.5,0,0,1,32.38,32.11Z"/><path class="cls-1" d="M29.06,35.5a.5.5,0,0,1-.49-.39l-.77-3.39a.5.5,0,0,1,1-.22l.76,3.39a.48.48,0,0,1-.37.59Z"/><path class="cls-1" d="M25.26,36.11a.48.48,0,0,1-.45-.28L24,34.2a.5.5,0,0,1,.9-.45l.8,1.64a.5.5,0,0,1-.22.67A.47.47,0,0,1,25.26,36.11Z"/><path class="cls-1" d="M29.82,39.45a.52.52,0,0,1-.31-.1.5.5,0,0,1-.08-.7l2.4-3.07a.5.5,0,0,1,.79.62l-2.4,3.06A.5.5,0,0,1,29.82,39.45Z"/><path class="cls-1" d="M26.5,41.71a.5.5,0,0,1-.47-.34l-.51-1.49a.5.5,0,1,1,.94-.32L27,41a.51.51,0,0,1-.48.67Z"/><path class="cls-1" d="M27,38.69h-.1a.5.5,0,0,1-.38-.6l.51-2.3a.49.49,0,0,1,.59-.38A.5.5,0,0,1,28,36l-.51,2.3A.5.5,0,0,1,27,38.69Z"/><path class="cls-1" d="M22.29,25.79a.5.5,0,0,1-.39-.18l-1.53-1.92a.5.5,0,1,1,.78-.62L22.68,25a.49.49,0,0,1-.08.7A.45.45,0,0,1,22.29,25.79Z"/><path class="cls-1" d="M29.06,26.81a.57.57,0,0,1-.18,0,.5.5,0,0,1-.29-.65l.77-2a.5.5,0,0,1,.64-.29.5.5,0,0,1,.29.65l-.77,2A.49.49,0,0,1,29.06,26.81Z"/><path class="cls-1" d="M34,24.84H31.58a.51.51,0,0,1-.5-.5.5.5,0,0,1,.5-.5H34a.5.5,0,0,1,.5.5A.5.5,0,0,1,34,24.84Z"/></g></g></svg>