<svg xmlns="http://www.w3.org/2000/svg" viewBox="0 0 96.96 89.97"><defs><style>.cls-1{fill:#231f20;}</style></defs><g id="Calque_2" data-name="Calque 2"><g id="Calque_4" data-name="Calque 4"><path class="cls-1" d="M96.94,67.07a14.93,14.93,0,0,1-2.65,7.17h0a14.64,14.64,0,0,1-12.17,6.66c-.54,0-1.08,0-1.62-.08l-.28,0-.11,0a.51.51,0,0,1-.34-.54l0-.11h0a.49.49,0,0,1,.22-.27.52.52,0,0,1,.32-.07l.44,0h.08l.41,0c4.84.28,9.14-1.9,12.19-6.2,2.82-4.28,3.28-8.57,1.28-11.79a7.3,7.3,0,0,0-5.52-3.45h0l-.42,0a7.54,7.54,0,0,0-.82,0l-.44,0h-.07A.51.51,0,0,1,87,58v0h0v-.06h0a.5.5,0,0,1,.44-.47h0l.54,0a7.87,7.87,0,0,1,1,0c.34,0,.68.06,1,.11s.55.12.82.19l.42.13a8.07,8.07,0,0,1,2.07,1c.18.13.36.26.54.41a8.53,8.53,0,0,1,1.8,2.06A9.6,9.6,0,0,1,96.94,67.07Z"/><path class="cls-1" d="M91.18,71.17c-1.4,2.47-4.13,5.08-7.61,5.18h-.45a.5.5,0,0,1-.36-.49v-.07a.53.53,0,0,1,.17-.32h0l0,0h1l.1,0c2.78-.35,5-2.54,6.16-4.61,1.35-2.36,1.64-4.85.73-6.34a3.64,3.64,0,0,0-3.32-1.57h-.44a0,0,0,0,1,0,0H87l-.08,0h0l0,0h0v0h0l0,0h0l0,0v0a0,0,0,0,1,0,0h0v0a.08.08,0,0,0,0,0h0a.28.28,0,0,1,0-.09h0a.57.57,0,0,1,0-.13h0a.5.5,0,0,1,.48-.39h.57a4.57,4.57,0,0,1,4.1,2.06C93,65.63,92.74,68.46,91.18,71.17Z"/><path class="cls-1" d="M39.43,59.43h0v0Z"/><path class="cls-1" d="M83.68,59.16a3.54,3.54,0,0,1-.53.81h0l0,0h0a5.88,5.88,0,0,1-1.13.94l-.61.38-.63.32a18.67,18.67,0,0,1-2.62,1,39,39,0,0,1-5.42,1.25c-1.82.29-3.66.49-5.5.63-.92.07-1.84.11-2.76.16l-1.38,0-1.38,0a75.47,75.47,0,0,1-11-.69L49.9,64l-.08,0A46.45,46.45,0,0,1,45.21,63l-.67-.18-.66-.21c-.45-.13-.89-.3-1.33-.46l-.64-.27-.33-.15-.31-.16L41,61.42l-.31-.17-.6-.38.2.06h0L40,60.86a4.68,4.68,0,0,1-.57-.45,2.16,2.16,0,0,1-.27-.25l-.25-.26h0v0h0l0,0h0a3,3,0,0,1-.47-.77,2.21,2.21,0,0,1-.16-.92,2.18,2.18,0,0,1,.25-.88,3.11,3.11,0,0,1,.52-.7,5.48,5.48,0,0,1,1.06-.82l.29-.17a11.7,11.7,0,0,1,1.49-.67A.07.07,0,0,1,42,55a.06.06,0,0,1,0,.07,15.68,15.68,0,0,0-1.38.82l-.27.2a5.43,5.43,0,0,0-.89.83,2,2,0,0,0-.54,1.3,1.66,1.66,0,0,0,.35,1l0,0,.18.21h0l0,0h0l0,0,0,0h0l.23.22.07.07.17.14a6.42,6.42,0,0,0,.53.38l-.2-.06h0l.21.06a17,17,0,0,0,3.94,1.67c.34.11.69.21,1,.3l.68.19h0l.59.14.17,0,.41.1c.45.1.91.19,1.36.27s.86.16,1.29.22l.84.13c1.15.16,2.31.29,3.47.4l1.58.12c2,.13,3.91.18,5.86.16.46,0,.92,0,1.37,0l1.37,0c.91-.05,1.82-.09,2.73-.17,1.82-.15,3.63-.36,5.43-.67l1.77-.33a34.9,34.9,0,0,0,3.52-.9l.1,0c.4-.12.79-.27,1.18-.41.21-.07.41-.17.62-.25s.42-.17.61-.27l.6-.3.56-.33a5.09,5.09,0,0,0,1-.78h0v0h0a1.81,1.81,0,0,0,.57-1.29,1.54,1.54,0,0,0-.18-.69,3.56,3.56,0,0,0-.47-.65l-.29-.29-.32-.27c-.22-.18-.46-.35-.7-.51-.48-.32-1-.62-1.51-.92a.05.05,0,0,1,0-.08,0,0,0,0,1,.06,0,9.59,9.59,0,0,1,1.7.61l.41.21c.13.08.27.15.39.24a4.12,4.12,0,0,1,.75.57,3.64,3.64,0,0,1,.63.76,2.06,2.06,0,0,1,.23.55h0a2.34,2.34,0,0,1,.07.45A2,2,0,0,1,83.68,59.16Z"/><path class="cls-1" d="M87.66,62.76h-.39a0,0,0,0,1,0,0H87l-.08,0h0l0,0h0v0h0l0,0h0l0,0v0a0,0,0,0,1,0,0h0v0a.08.08,0,0,0,0,0h0a.28.28,0,0,1,0-.09,34.94,34.94,0,0,1-3.81,13.17h0l0,0h1l.1,0a36.37,36.37,0,0,0,3.57-12.52ZM55.35,49.31h0c-1.37.09-2.71.21-4,.37-1.07.12-3.34.49-4.35.66,0,0,1.39.69,1.46.76.27,0,2.63-.36,2.92-.38a40,40,0,0,1,5-.49c1.87-.09,2.88,0,3.29-.07.08-.08,1.44-.68-.26-1ZM88,57.4c-.16-2.3-3-4.39-8.1-5.92A58.87,58.87,0,0,0,68,49.41c-2.24-.19-4.58-.28-7-.28H60c-.56,0-1.11,0-1.67,0a6.73,6.73,0,0,1,1,.76l.26.23H61c2.71,0,5.27.12,7.64.33a64.89,64.89,0,0,1,7.91,1.19h0l1.84.45h0C83.82,53.57,87,55.62,87,57.6v.32h0V58h0c0,1.44-.08,2.83-.21,4.16h0s0,.09,0,.13h0a34.94,34.94,0,0,1-3.81,13.17h0a3.24,3.24,0,0,1-.17.32A26.69,26.69,0,0,1,80,79.85l-.22.27h0A24.46,24.46,0,0,1,61,89C48.55,89,35.11,79.14,35.11,57.6c0-1.47,1.72-3,4.81-4.24a34.88,34.88,0,0,1,5.65-1.71c.94-.2,1.93-.39,3-.56a1.56,1.56,0,0,0-.16-.2,5.68,5.68,0,0,0-.7-.68c-.55.09-1.08.19-1.6.3q-1.28.27-2.46.57c-.49.13-1,.26-1.43.4-.67.21-1.31.42-1.9.64l-1.14.45a12.15,12.15,0,0,0-4,2.63,3.68,3.68,0,0,0-1,2.4c0,10,2.91,18.36,8.4,24.25a25.24,25.24,0,0,0,37.09,0l.91-1,.18-.22c.2-.24.4-.49.59-.74a28.85,28.85,0,0,0,2.31-3.52l.13-.24c.15-.27.3-.55.44-.83a36.37,36.37,0,0,0,3.57-12.52,1.79,1.79,0,0,1,0-.23c0-.26,0-.52.07-.79.1-1.08.15-2.19.17-3.32v-.24c0-.19,0-.39,0-.58A1.27,1.27,0,0,0,88,57.4Zm-.31,5.36h-.39a0,0,0,0,1,0,0H87l-.08,0h0l0,0h0v0h0l0,0h0l0,0v0a0,0,0,0,1,0,0h0v0a.08.08,0,0,0,0,0h0a.28.28,0,0,1,0-.09,34.94,34.94,0,0,1-3.81,13.17h0l0,0h1l.1,0a36.37,36.37,0,0,0,3.57-12.52Z"/><path class="cls-1" d="M69.13,42.07a.5.5,0,0,1-.5-.5V39.14a.5.5,0,0,1,1,0v2.43A.5.5,0,0,1,69.13,42.07Z"/><path class="cls-1" d="M68.38,48.57a.47.47,0,0,1-.25-.07.5.5,0,0,1-.18-.68L69,46a.49.49,0,1,1,.86.49l-1,1.8A.51.51,0,0,1,68.38,48.57Z"/><path class="cls-1" d="M74,47.77a.51.51,0,0,1-.48-.35L73.12,46a.5.5,0,0,1,1-.29l.44,1.46a.5.5,0,0,1-.33.62Z"/><path class="cls-1" d="M70.41,50a.51.51,0,0,1-.44-.25.5.5,0,0,1,.18-.68l1.54-.89a.49.49,0,0,1,.68.17.51.51,0,0,1-.18.69l-1.53.89A.47.47,0,0,1,70.41,50Z"/><path class="cls-1" d="M68.62,53.17a.49.49,0,0,1-.44-.26l-1-1.92a.5.5,0,0,1,.88-.47l1,1.92a.49.49,0,0,1-.21.67A.46.46,0,0,1,68.62,53.17Z"/><path class="cls-1" d="M71.27,59.26l-.15,0a.5.5,0,0,1-.32-.63l.49-1.5a.49.49,0,0,1,.63-.32.49.49,0,0,1,.32.62l-.49,1.51A.5.5,0,0,1,71.27,59.26Z"/><path class="cls-1" d="M72.58,52.21a.5.5,0,0,1-.27-.07.51.51,0,0,1-.16-.69l.61-1a.5.5,0,1,1,.84.54L73,52A.51.51,0,0,1,72.58,52.21Z"/><path class="cls-1" d="M70.94,54.58a.51.51,0,0,1-.49-.39l-.53-2.36a.5.5,0,0,1,.38-.6.48.48,0,0,1,.59.37L71.43,54a.49.49,0,0,1-.38.59Z"/><path class="cls-1" d="M67.37,56.21a.51.51,0,0,1-.45-.27l-.8-1.64a.5.5,0,0,1,.23-.67.49.49,0,0,1,.66.23l.81,1.63a.5.5,0,0,1-.23.67A.42.42,0,0,1,67.37,56.21Z"/><path class="cls-1" d="M73.87,55.11h-.1a.51.51,0,0,1-.4-.59l.36-1.79a.48.48,0,0,1,.58-.39.5.5,0,0,1,.4.58l-.35,1.79A.51.51,0,0,1,73.87,55.11Z"/><path class="cls-1" d="M68.62,61.81a.49.49,0,0,1-.47-.34L67.63,60a.5.5,0,0,1,.31-.63.51.51,0,0,1,.64.31l.51,1.49a.5.5,0,0,1-.31.63A.45.45,0,0,1,68.62,61.81Z"/><path class="cls-1" d="M69.13,58.79H69a.5.5,0,0,1-.38-.6l.51-2.3a.51.51,0,0,1,.6-.38.5.5,0,0,1,.38.6l-.51,2.3A.5.5,0,0,1,69.13,58.79Z"/><path class="cls-1" d="M68.36,44.42a.51.51,0,0,1-.46-.3l-.77-1.77a.5.5,0,0,1,.92-.4l.77,1.77a.51.51,0,0,1-.26.66A.45.45,0,0,1,68.36,44.42Z"/><path class="cls-1" d="M71.17,46.92a.39.39,0,0,1-.18,0,.49.49,0,0,1-.28-.64l.76-2a.5.5,0,1,1,.93.36l-.76,2A.51.51,0,0,1,71.17,46.92Z"/><path class="cls-1" d="M72.65,43.33H70.22a.5.5,0,0,1-.5-.5.5.5,0,0,1,.5-.5h2.43a.51.51,0,0,1,.5.5A.5.5,0,0,1,72.65,43.33Z"/><path class="cls-1" d="M72,55.82a.53.53,0,0,1-.24-.06.5.5,0,0,1-.2-.68l.5-.93a.5.5,0,1,1,.88.46l-.5.94A.5.5,0,0,1,72,55.82Z"/><path class="cls-1" d="M69.49,23.74l-3.95-10c-1.41-1-14.8-10.46-19.86-12.43L44.06.7,45.77.37a8,8,0,0,1,2-.15c1.12.07,15.47,7.71,19.84,10l.21.11,2.64,13.08ZM48.3,1.45C54.64,4.76,65.71,12.65,66.24,13l.12.09,2,5L66.91,11C60.64,7.68,51,2.62,48.3,1.45Z"/><path class="cls-1" d="M70.5,37.62a5.45,5.45,0,0,1-4.17-2.22l-.1-.13a8,8,0,0,1-.66-1,70.52,70.52,0,0,1-4.84-11l.93-.38c2.83,6.24,5.23,10.34,6.57,11.24a4.69,4.69,0,0,0,3.94.46l.52-.14.45,2.24-.27.19A4.41,4.41,0,0,1,70.5,37.62Zm-4.16-4,.09.14a5.73,5.73,0,0,0,.61.87l.09.13c2.17,2.52,4.18,1.85,4.89,1.49l-.11-.55A5.45,5.45,0,0,1,67.67,35,6.38,6.38,0,0,1,66.34,33.66Z"/><path class="cls-1" d="M66.36,13.12,66.24,13C65.64,12.6,51.48,2.51,46,.4A5.27,5.27,0,0,0,44.55,0C41.28-.22,30.41,4.57,22.46,8.06a83.29,83.29,0,0,1-7.7,3.18,11.6,11.6,0,0,1-4.91-.84l-.45-.18h0a6.49,6.49,0,0,0,.53,1.28,11.38,11.38,0,0,0,5,.73c.78-.12,3.4-1.26,8-3.26C30.27,5.72,41.5.81,44.48,1a4.46,4.46,0,0,1,1.2.32c5.06,2,18.45,11.42,19.86,12.43l8,20.34a7.54,7.54,0,0,1-1.42.55,4.69,4.69,0,0,1-3.94-.46c-1.34-.9-3.74-5-6.6-11.3-.79-1.73-1.29-2.95-1.3-3l0-.1-.09-.08a19.45,19.45,0,0,0-5.33-3.2,9.26,9.26,0,0,0-4.76-.62,21.18,21.18,0,0,1-5,0c-3.1-.23-6-.44-6.52,2.62-.64,4.14,4,11.83,4.23,12.16l.14.23h.26c8,.3,20.49,1.41,22.26,3.23l.15.16a8.76,8.76,0,0,0,.63.9c.69,1.36.26,2.8-1.27,4.29-.38.35-2.89.13-5.11-.07A55.66,55.66,0,0,0,49,39.28c-1.91.21-3.81.48-5.64.75a69.25,69.25,0,0,1-16.24,1c-3.7-.3-7.83-2-12.21-3.89-1.76-.75-3.59-1.52-5.48-2.24A55.42,55.42,0,0,0,.8,32.59a3.3,3.3,0,0,0-.8.87,57.66,57.66,0,0,1,9.11,2.37c1.88.72,3.7,1.49,5.45,2.23,4.46,1.88,8.66,3.66,12.52,4,1.37.11,2.69.16,4,.16A84.21,84.21,0,0,0,43.54,41c1.83-.27,3.72-.54,5.61-.75a54.56,54.56,0,0,1,10.62.22c3.5.31,5.21.43,5.88-.21C68,38,67.75,36,67.1,34.76L67,34.67a6.15,6.15,0,0,1-.61-.86l-.27-.3c-2.51-2.6-19.61-3.4-22.66-3.52-.76-1.3-4.48-7.84-4-11.26.32-2.05,2.18-2,5.46-1.77a22.17,22.17,0,0,0,5.27,0,8.34,8.34,0,0,1,4.24.56,19,19,0,0,1,4.94,2.95c.14.34.61,1.44,1.29,2.93,2.09,4.6,5,10.36,6.92,11.66a5.73,5.73,0,0,0,4.77.6,8.35,8.35,0,0,0,2-.87l.35-.22Z"/><path class="cls-1" d="M56.64,28.29l-.21,0c-.36-.07-3.47-.71-3.25-2.61.44-3.79,4.35-7,4.51-7.17a.5.5,0,0,1,.71.07.5.5,0,0,1-.07.7s-3.76,3.13-4.15,6.51c-.09.72,1.35,1.27,2.23,1.47l4.78-3.37a.5.5,0,1,1,.58.81Z"/><path class="cls-1" d="M54,24.6a.59.59,0,0,1-.22-.05c-.09,0-2.14-1.08-1.87-2.83a15,15,0,0,1,2.39-5,.49.49,0,0,1,.69-.12.5.5,0,0,1,.12.7,14.38,14.38,0,0,0-2.21,4.56c-.16,1,1.31,1.78,1.33,1.78a.51.51,0,0,1,.22.67A.49.49,0,0,1,54,24.6Z"/></g></g></svg>