<svg xmlns="http://www.w3.org/2000/svg" viewBox="0 0 77.33 72.7"><defs><style>.cls-1{fill:#231f20;}</style></defs><g id="Calque_2" data-name="Calque 2"><g id="Calque_4" data-name="Calque 4"><path class="cls-1" d="M62.84,49.79A15,15,0,0,1,60.2,57h0A14.69,14.69,0,0,1,48,63.64a14.93,14.93,0,0,1-1.62-.09l-.28,0a.38.38,0,0,1-.1,0,.51.51,0,0,1-.34-.54.23.23,0,0,1,0-.11h0a.53.53,0,0,1,.22-.27.49.49,0,0,1,.32-.06l.43,0h.09l.4,0a13.61,13.61,0,0,0,12.19-6.2c2.82-4.27,3.29-8.57,1.29-11.78a7.29,7.29,0,0,0-5.52-3.45h0l-.42,0a7.48,7.48,0,0,0-.82,0l-.44,0h-.08a.51.51,0,0,1-.49-.45.08.08,0,0,0,0,0h0a.13.13,0,0,1,0-.06h0a.5.5,0,0,1,.44-.47h0l.54-.05c.32,0,.65,0,1,0a8.61,8.61,0,0,1,1,.12,8.09,8.09,0,0,1,.82.19l.42.13a8.55,8.55,0,0,1,2.07,1l.53.41a8.34,8.34,0,0,1,1.8,2.07A9.41,9.41,0,0,1,62.84,49.79Z"/><path class="cls-1" d="M57.09,53.9C55.68,56.36,53,59,49.48,59.07h-.32l-.11,0h0a.53.53,0,0,1-.37-.5.13.13,0,0,1,0-.06.48.48,0,0,1,.17-.32h0l0,0h0l.05,0H50c2.79-.35,5-2.54,6.17-4.62,1.35-2.36,1.63-4.85.73-6.34a3.68,3.68,0,0,0-3.33-1.57h-.67l-.08,0h0l0,0h0l0,0h0v-.06s0,0,0,0h0v0h0a.36.36,0,0,1,0-.1h0a.5.5,0,0,1,0-.12h0a.5.5,0,0,1,.47-.4h.58a4.56,4.56,0,0,1,4.1,2.05C58.92,48.36,58.65,51.18,57.09,53.9Z"/><path class="cls-1" d="M5.34,42.15h0Z"/><path class="cls-1" d="M49.59,41.89a3.21,3.21,0,0,1-.54.8h0l0,0h0a5.94,5.94,0,0,1-1.13,1l-.62.37-.63.33a18.94,18.94,0,0,1-2.62,1,40.34,40.34,0,0,1-5.41,1.24c-1.83.29-3.66.49-5.5.63-.92.08-1.84.12-2.76.16l-1.38,0c-.46,0-.92,0-1.38,0a73.93,73.93,0,0,1-11-.69l-.76-.11h-.08c-1.55-.24-3.09-.54-4.61-.93l-.67-.19-.67-.2c-.44-.13-.88-.3-1.32-.47-.22-.08-.43-.18-.65-.27l-.32-.14-.32-.16-.31-.17A2.38,2.38,0,0,1,6.55,44l-.61-.38.21.06h0l-.21-.06c-.2-.14-.39-.29-.58-.45a3.25,3.25,0,0,1-.27-.26l-.24-.26h0l0,0h0a2.74,2.74,0,0,1-.47-.77,2,2,0,0,1-.16-.91A2.08,2.08,0,0,1,4.44,40a3,3,0,0,1,.52-.7,5.36,5.36,0,0,1,1-.81l.3-.17a9.44,9.44,0,0,1,1.49-.67.05.05,0,0,1,.07,0,.07.07,0,0,1,0,.08,11.81,11.81,0,0,0-1.37.82l-.27.2a5.47,5.47,0,0,0-.9.83,2,2,0,0,0-.53,1.29,1.7,1.7,0,0,0,.34,1l0,0a1.84,1.84,0,0,0,.17.22h0l0,0,0,0,0,0h0l0,0,0,0h0l.22.22.08.08.17.14a5,5,0,0,0,.53.37l-.2-.06h0l.2.07a17.88,17.88,0,0,0,3.94,1.67l1,.3.68.18h0l.6.15.17,0,.41.09,1.36.28,1.28.22.84.13q1.74.24,3.48.39c.52,0,1.05.09,1.57.12,2,.13,3.91.18,5.87.17l1.37,0,1.37,0c.91,0,1.82-.1,2.73-.18q2.73-.21,5.42-.66.89-.15,1.77-.33a35.84,35.84,0,0,0,3.53-.91l.09,0,1.19-.41c.21-.07.41-.17.62-.25s.41-.17.61-.28l.59-.29.57-.34a5,5,0,0,0,1-.78h0A1.81,1.81,0,0,0,49,40.88a1.63,1.63,0,0,0-.19-.69,3.44,3.44,0,0,0-.46-.64,4.11,4.11,0,0,0-.3-.29c-.1-.1-.21-.19-.32-.28s-.45-.34-.69-.51c-.49-.32-1-.62-1.52-.91a.08.08,0,0,1,0-.08s0,0,.07,0a9.63,9.63,0,0,1,1.7.62l.4.2c.14.08.27.15.4.24a5,5,0,0,1,.75.57,3.55,3.55,0,0,1,.62.76,2.56,2.56,0,0,1,.24.56h0a2.14,2.14,0,0,1,.08.44A2.22,2.22,0,0,1,49.59,41.89Z"/><path class="cls-1" d="M53.57,45.48h-.63l-.08,0h0l0,0h0l0,0h0v-.06s0,0,0,0h0v0h0a.36.36,0,0,1,0-.1,35,35,0,0,1-3.8,13.18h0l0,0h0l.05,0H50a36.21,36.21,0,0,0,3.57-12.53ZM21.26,32h0c-1.37.09-2.71.21-4,.36-1.08.13-3.34.49-4.36.66,0,0,1.4.7,1.46.77l2.92-.39a42.8,42.8,0,0,1,5-.49c1.87-.08,2.89,0,3.29-.07.09-.08,1.45-.67-.26-1C25.09,31.87,21.45,32,21.26,32Zm32.62,8.08c-.16-2.29-3-4.38-8.1-5.91a58.38,58.38,0,0,0-11.87-2.08c-2.24-.18-4.58-.27-7-.27h-1l-1.67,0a6.56,6.56,0,0,1,1,.76l.25.22h1.4c2.71,0,5.27.12,7.64.34a60.94,60.94,0,0,1,7.91,1.19h0c.64.14,1.26.29,1.85.45h0c5.39,1.45,8.53,3.5,8.53,5.47v.32h0v.06h0c0,1.45-.08,2.83-.2,4.17h0s0,.08,0,.12h0a35,35,0,0,1-3.8,13.18h0l-.17.32a27.86,27.86,0,0,1-2.75,4.07l-.22.27h0a24.46,24.46,0,0,1-18.76,8.84C14.46,71.68,1,61.87,1,40.32c0-1.46,1.72-3,4.8-4.24a35.57,35.57,0,0,1,5.65-1.7c.94-.21,1.94-.4,3-.57-.05-.07-.11-.13-.17-.2a5.69,5.69,0,0,0-.7-.68l-1.6.31q-1.28.25-2.46.57c-.49.12-1,.26-1.43.4-.67.2-1.3.41-1.9.63-.39.15-.77.3-1.13.46a12.12,12.12,0,0,0-4,2.62,3.7,3.7,0,0,0-1,2.4c0,10,2.9,18.36,8.4,24.25a25.22,25.22,0,0,0,37.09,0q.46-.5.9-1l.18-.22c.2-.24.4-.49.59-.74a29.32,29.32,0,0,0,2.32-3.52l.13-.23L50,58a36.21,36.21,0,0,0,3.57-12.53l0-.23c0-.26,0-.52.07-.78.09-1.09.15-2.2.17-3.33v-1Zm-.31,5.36h-.63l-.08,0h0l0,0h0l0,0h0v-.06s0,0,0,0h0v0h0a.36.36,0,0,1,0-.1,35,35,0,0,1-3.8,13.18h0l0,0h0l.05,0H50a36.21,36.21,0,0,0,3.57-12.53Z"/><path class="cls-1" d="M5.46,42.67l-.84-.4c.12-.27,1.5-2.72,12.18-4.38a81.54,81.54,0,0,1,23.67.28c6.28,1,8.81,3.55,8.92,3.66l-.67.65s-2.45-2.41-8.4-3.39a80.61,80.61,0,0,0-23.38-.28C6.82,40.39,5.47,42.64,5.46,42.67Z"/><path class="cls-1" d="M37,30.78a.5.5,0,0,1-.47-.34.5.5,0,0,1,.31-.63c.15-.06,3.64-1.35,3.64-6.18,0-2-1.42-4-2.94-6-1.65-2.26-3.36-4.59-3.36-7.29,0-4.38,3.61-7.1,3.76-7.21a.5.5,0,1,1,.6.8s-3.36,2.54-3.36,6.41c0,2.37,1.61,4.57,3.17,6.7s3.13,4.27,3.13,6.62c0,5.56-4.27,7.11-4.31,7.12A.51.51,0,0,1,37,30.78Z"/><path class="cls-1" d="M27.17,27.78a.5.5,0,0,1-.47-.34.5.5,0,0,1,.31-.63c.15-.06,3.64-1.35,3.64-6.18,0-2-1.43-4-2.94-6-1.65-2.26-3.36-4.59-3.36-7.29C24.35,2.93,28,.21,28.11.1a.5.5,0,0,1,.7.1.5.5,0,0,1-.1.7s-3.36,2.54-3.36,6.41c0,2.37,1.61,4.57,3.17,6.7s3.13,4.27,3.13,6.62c0,5.56-4.27,7.11-4.31,7.12A.51.51,0,0,1,27.17,27.78Z"/><path class="cls-1" d="M17.38,30.78a.5.5,0,0,1-.47-.34.5.5,0,0,1,.31-.63c.15-.06,3.64-1.35,3.64-6.18,0-2-1.43-4-2.94-6-1.65-2.26-3.36-4.59-3.36-7.29,0-4.38,3.61-7.1,3.76-7.21a.5.5,0,1,1,.6.8s-3.36,2.54-3.36,6.41c0,2.37,1.61,4.57,3.17,6.7s3.13,4.27,3.13,6.62c0,5.56-4.27,7.11-4.31,7.12A.51.51,0,0,1,17.38,30.78Z"/><path class="cls-1" d="M63.46,44.28a.5.5,0,0,1-.14-1A17.85,17.85,0,1,0,42.11,19a.5.5,0,0,1-.92-.39,18.85,18.85,0,1,1,22.4,25.65A.3.3,0,0,1,63.46,44.28Z"/><path class="cls-1" d="M58,27.32V11.5a.5.5,0,0,1,.5-.5.5.5,0,0,1,.5.5V24.91L64.2,19.7a.49.49,0,1,1,.7.7Z"/></g></g></svg>