<svg xmlns="http://www.w3.org/2000/svg" viewBox="0 0 69.31 94.87"><defs><style>.cls-1{fill:#071a20;}.cls-2{fill:#3e7889;}</style></defs><g id="Calque_2" data-name="Calque 2"><g id="Calque_6" data-name="Calque 6"><path class="cls-1" d="M69.31,34.66a34.48,34.48,0,0,1-6.33,20l-.08.1L36.59,93.84a2.34,2.34,0,0,1-3.88,0L7,55.57a34.66,34.66,0,1,1,62.3-20.91Zm-7.15,19.4A33.66,33.66,0,1,0,1,34.66,33.37,33.37,0,0,0,7.81,55L33.54,93.28a1.34,1.34,0,0,0,2.22,0Z"/><path class="cls-2" d="M68.31,34.66a33.49,33.49,0,0,1-6.15,19.4L35.76,93.28a1.34,1.34,0,0,1-2.22,0L7.81,55a33.66,33.66,0,1,1,60.5-20.31Zm-14.54,0A19.12,19.12,0,1,0,34.65,53.77,19.15,19.15,0,0,0,53.77,34.66Z"/><path class="cls-1" d="M34.65,15.54A19.12,19.12,0,1,1,15.54,34.66,19.15,19.15,0,0,1,34.65,15.54ZM52.77,34.66a18.15,18.15,0,0,0-15.8-18,17.73,17.73,0,0,0-2.32-.15,18.12,18.12,0,1,0,3.56,35.88,8.11,8.11,0,0,0,2.33.36h.12l0-1h-.06A18.14,18.14,0,0,0,52.77,34.66Z"/><path class="cls-1" d="M46.93,30v.46a9.54,9.54,0,0,1-3.56,6.76c-2.1,1.83-5.39,2.11-7.23,2.11a12.4,12.4,0,0,1-1.35-.06l-.22,0v-.64l.78.48a3.49,3.49,0,0,1,.56-.77c1.64,0,4.88-.18,6.81-1.86A9,9,0,0,0,45.89,31c-1.25,0-4.57.11-6.65,1.6a9.59,9.59,0,0,0-3.49,4.62,5.92,5.92,0,0,0-1.16,1c0-.22,0-.46,0-.69a10.43,10.43,0,0,1,4-5.72C41.55,29.69,46.27,30,46.47,30Z"/><path class="cls-2" d="M45.89,31a9,9,0,0,1-3.16,5.51c-1.93,1.68-5.17,1.88-6.81,1.86.18-.19.38-.39.58-.57A16.16,16.16,0,0,1,38,36.61a30.08,30.08,0,0,1,3.41-2,28.25,28.25,0,0,0-3.7,1.43,16.12,16.12,0,0,0-1.78,1l-.21.14a9.59,9.59,0,0,1,3.49-4.62C41.32,31.08,44.64,31,45.89,31Z"/><path class="cls-1" d="M40.62,51.78l0,1h-.12a8.11,8.11,0,0,1-2.33-.36,16.33,16.33,0,0,0,2.33-.64h.08Z"/><path class="cls-1" d="M41.44,34.66a30.08,30.08,0,0,0-3.41,2,16.16,16.16,0,0,0-1.53,1.16c-.2.18-.4.38-.58.57h-.49a7.69,7.69,0,0,1,.32-1.14l.21-.14a16.12,16.12,0,0,1,1.78-1A28.25,28.25,0,0,1,41.44,34.66Z"/><path class="cls-1" d="M36.86,20a13.92,13.92,0,0,1,1.49,8.18,10.81,10.81,0,0,1-3.66,7.11c0-.07,0-.15,0-.22h0c0-.4,0-.81,0-1.21a10.18,10.18,0,0,0,2.62-5.79,13.49,13.49,0,0,0-1.1-7,10.06,10.06,0,0,0-3.6,6.57,10.68,10.68,0,0,0,1.18,5.95c-.07.49-.13,1-.19,1.47h.05c0,.06,0,.13,0,.19a11.31,11.31,0,0,1-2-7.7,11.06,11.06,0,0,1,4.49-7.66l.44-.3Z"/><path class="cls-1" d="M40.54,51.78a16.33,16.33,0,0,1-2.33.64,5.69,5.69,0,0,1-3.68-3.22A18.38,18.38,0,0,1,33.68,44h.11a.73.73,0,0,0,.55-.25.69.69,0,0,0,.14-.62,26.54,26.54,0,0,0-.91-3c0-1.63,0-3.29.12-4.85l.13.16.3.35.37-.27.2-.16c0,.74-.06,1.46-.08,2.16a6.88,6.88,0,0,0-.21.92l-.06.08,0,0c0,.14,0,.23,0,.25l0,.48.27,0c0,4.54.27,8.1.87,9.55C36.63,51.64,40,51.78,40.54,51.78Z"/><path class="cls-2" d="M36.26,21.06a13.49,13.49,0,0,1,1.1,7,10.18,10.18,0,0,1-2.62,5.79A63.11,63.11,0,0,1,35,27a62.48,62.48,0,0,0-1.16,6.56,10.68,10.68,0,0,1-1.18-5.95A10.06,10.06,0,0,1,36.26,21.06Z"/><path class="cls-1" d="M35.43,38.33h.49a3.49,3.49,0,0,0-.56.77l-.78-.48c0-.15,0-.3,0-.46a5.92,5.92,0,0,1,1.16-1A7.69,7.69,0,0,0,35.43,38.33Z"/><path class="cls-1" d="M34.74,33.89c0,.4,0,.81,0,1.21h0l-1-.05h-.05c.06-.49.12-1,.19-1.47a8.08,8.08,0,0,0,.45.76Z"/><path class="cls-1" d="M35,27a63.11,63.11,0,0,0-.26,6.87l-.45.45a8.08,8.08,0,0,1-.45-.76A62.48,62.48,0,0,1,35,27Z"/><path class="cls-1" d="M34.7,35.1c0,.07,0,.15,0,.22l-.2.16-.37.27-.3-.35-.13-.16c0-.06,0-.13,0-.19Z"/><path class="cls-1" d="M34.61,37.48c0,.23,0,.47,0,.69a2.11,2.11,0,0,0-.19.23A6.88,6.88,0,0,1,34.61,37.48Z"/><path class="cls-1" d="M34.59,38.17c0,.16,0,.31,0,.46l-.2-.12s0-.07,0-.11A2.11,2.11,0,0,1,34.59,38.17Z"/><path class="cls-1" d="M34.58,38.63v.64l-.27,0,0-.48s0-.11,0-.25Z"/><path class="cls-1" d="M34.48,43.09a.69.69,0,0,1-.14.62.73.73,0,0,1-.55.25h-.11c0-.21,0-.43,0-.66l.3-1-.34-.12c0-.69,0-1.4,0-2.12A26.54,26.54,0,0,1,34.48,43.09Z"/><path class="cls-1" d="M34.34,38.48l.06-.08s0,.08,0,.11Z"/><path class="cls-1" d="M33.94,42.33l-.3,1c0-.35,0-.72,0-1.09Z"/><path class="cls-1" d="M33.64,43.3c0,.23,0,.45,0,.66-1.5-.12-6.33-.72-9.28-4a11.93,11.93,0,0,1-3.08-8.47l0-.51.51.06A17.54,17.54,0,0,1,30,34.47a13.23,13.23,0,0,1,3.6,5.62c0,.72,0,1.43,0,2.12-.14-.05-.29-.12-.44-.19-.57-1.9-1.8-5.17-3.81-6.77a17,17,0,0,0-7-3.12,11.17,11.17,0,0,0,2.83,7.17,12.47,12.47,0,0,0,7.25,3.49,6.18,6.18,0,0,0,1.2.68Z"/><path class="cls-1" d="M33.64,43.3l0,.17a6.18,6.18,0,0,1-1.2-.68c.4.07.75.11,1,.14-.06-.24-.15-.55-.26-.91.15.07.3.14.44.19C33.61,42.58,33.63,43,33.64,43.3Z"/><path class="cls-1" d="M33.16,42c.11.36.2.67.26.91-.28,0-.63-.07-1-.14s-.53-.39-.8-.6a20.19,20.19,0,0,1-1.66-1.53,30.76,30.76,0,0,1-2.84-3.43,30.35,30.35,0,0,0,3.24,3,16.67,16.67,0,0,0,1.78,1.24A10.65,10.65,0,0,0,33.16,42Z"/><path class="cls-2" d="M33.16,42a10.65,10.65,0,0,1-1-.57,16.67,16.67,0,0,1-1.78-1.24,30.35,30.35,0,0,1-3.24-3,30.76,30.76,0,0,0,2.84,3.43,20.19,20.19,0,0,0,1.66,1.53c.27.21.52.41.8.6a12.47,12.47,0,0,1-7.25-3.49,11.17,11.17,0,0,1-2.83-7.17,17,17,0,0,1,7,3.12C31.36,36.85,32.59,40.12,33.16,42Z"/></g></g></svg>