<svg xmlns="http://www.w3.org/2000/svg" viewBox="0 0 69.26 94.8"><defs><style>.cls-1{fill:#231f20;}.cls-2{fill:#d35341;}</style></defs><g id="Calque_2" data-name="Calque 2"><g id="Calque_6" data-name="Calque 6"><path class="cls-1" d="M69.26,34.64a34.44,34.44,0,0,1-6.32,20l-.07.1L36.57,93.77a2.33,2.33,0,0,1-3.87,0L7,55.54a34.64,34.64,0,1,1,62.25-20.9ZM62.12,54A33.63,33.63,0,1,0,1,34.64a33.37,33.37,0,0,0,6.82,20.3l0,.09L33.53,93.21a1.37,1.37,0,0,0,2.21,0Z"/><path class="cls-2" d="M68.26,34.64A33.42,33.42,0,0,1,62.12,54L35.74,93.21a1.37,1.37,0,0,1-2.21,0L7.87,55l0-.09a33.63,33.63,0,1,1,60.44-20.3Zm-14.53,0a19.1,19.1,0,1,0-19.1,19.1A19.11,19.11,0,0,0,53.73,34.64Z"/><path class="cls-1" d="M49.27,34.43A4.3,4.3,0,0,1,49.88,37a6.8,6.8,0,0,1-1.2,3.26h0a6.6,6.6,0,0,1-5.53,3c-.24,0-.48,0-.73,0l0,0,0,0a5.32,5.32,0,0,0,.69,0,6.64,6.64,0,0,0,5.51-3h0A6.84,6.84,0,0,0,49.85,37a4.36,4.36,0,0,0-.61-2.59,3.82,3.82,0,0,0-.81-.93l-.25-.19a3.54,3.54,0,0,0-.93-.47l-.19-.06c-.12,0-.25-.06-.37-.09l-.46-.05h-.41v0a2.8,2.8,0,0,1,.41,0l.46,0a2.62,2.62,0,0,1,.38.09l.19.06a3.6,3.6,0,0,1,.94.47l.25.19A3.88,3.88,0,0,1,49.27,34.43Z"/><path class="cls-1" d="M49.24,34.45A4.36,4.36,0,0,1,49.85,37a6.84,6.84,0,0,1-1.2,3.24h0a6.64,6.64,0,0,1-5.51,3,5.32,5.32,0,0,1-.69,0l0,0,.67,0a6.56,6.56,0,0,0,5.48-3A6.72,6.72,0,0,0,49.81,37a4.24,4.24,0,0,0-.6-2.57,3.79,3.79,0,0,0-.81-.93l-.24-.18a3.48,3.48,0,0,0-.92-.47l-.19-.06-.37-.08a3.1,3.1,0,0,0-.45,0,2.8,2.8,0,0,0-.41,0,0,0,0,0,0,0,0h.41l.46.05c.12,0,.25,0,.37.09l.19.06a3.54,3.54,0,0,1,.93.47l.25.19A3.82,3.82,0,0,1,49.24,34.45Z"/><path class="cls-1" d="M49.21,34.47a4.24,4.24,0,0,1,.6,2.57,6.72,6.72,0,0,1-1.19,3.23,6.56,6.56,0,0,1-5.48,3l-.67,0h0s0,0,0,0l.26-.33h.35A6.25,6.25,0,0,0,48.3,40c1.28-1.94,1.49-3.9.58-5.36a3.34,3.34,0,0,0-2.52-1.58h-.2a1.82,1.82,0,0,0-.33,0v-.33a.13.13,0,0,0,0-.06,2.8,2.8,0,0,1,.41,0,3.1,3.1,0,0,1,.45,0l.37.08.19.06a3.48,3.48,0,0,1,.92.47l.24.18A3.79,3.79,0,0,1,49.21,34.47Z"/><path class="cls-1" d="M48.88,34.68c.91,1.46.7,3.42-.58,5.36a6.25,6.25,0,0,1-5.18,2.83h-.34s0,0,0,0h0A6.16,6.16,0,0,0,48.27,40c1.27-1.94,1.48-3.88.58-5.34a3.31,3.31,0,0,0-2.5-1.56h-.52v0a1.82,1.82,0,0,1,.33,0h.2A3.34,3.34,0,0,1,48.88,34.68Z"/><path class="cls-1" d="M48.85,34.69c.9,1.46.69,3.4-.58,5.34a6.16,6.16,0,0,1-5.47,2.8s0,0,0,0h.31A6.19,6.19,0,0,0,48.24,40c1.27-1.92,1.48-3.85.58-5.3a3.27,3.27,0,0,0-2.47-1.54h-.52v0h.52A3.31,3.31,0,0,1,48.85,34.69Z"/><path class="cls-2" d="M48.82,34.71c.9,1.45.69,3.38-.58,5.3a6.19,6.19,0,0,1-5.12,2.8h-.31a12.26,12.26,0,0,0,1-1.53,3.81,3.81,0,0,0,2.08-.78,5.45,5.45,0,0,0,1.37-1.58,3.43,3.43,0,0,0,.33-3.37,2.09,2.09,0,0,0-1.85-.94c0-.47.07-1,.08-1.44h.52A3.27,3.27,0,0,1,48.82,34.71Z"/><path class="cls-1" d="M34.63,15.54a19.1,19.1,0,1,1-19.1,19.1A19.11,19.11,0,0,1,34.63,15.54Zm18.11,19.1a18.11,18.11,0,1,0-18.11,18.1A18.14,18.14,0,0,0,52.74,34.64Z"/><path class="cls-1" d="M47.6,35.54a3.43,3.43,0,0,1-.33,3.37,5.45,5.45,0,0,1-1.37,1.58,3.81,3.81,0,0,1-2.08.78s0,0,0,0h0a4.37,4.37,0,0,0,3.4-2.34,3.4,3.4,0,0,0,.33-3.34,2,2,0,0,0-1.82-.93v0A2.09,2.09,0,0,1,47.6,35.54Z"/><path class="cls-1" d="M47.57,35.56a3.4,3.4,0,0,1-.33,3.34,4.37,4.37,0,0,1-3.4,2.34.08.08,0,0,1,0,0,0,0,0,0,1,0,0,4.72,4.72,0,0,0,4-4.43,2.28,2.28,0,0,0-.3-1.18,2,2,0,0,0-1.79-.91v0h0A2,2,0,0,1,47.57,35.56Z"/><path class="cls-1" d="M47.54,35.58a2.28,2.28,0,0,1,.3,1.18,4.72,4.72,0,0,1-4,4.43l0,0c.07-.12.13-.25.19-.36h0a4.11,4.11,0,0,0,2.78-2.09,3.07,3.07,0,0,0,.34-2.91,1.68,1.68,0,0,0-1.5-.72.2.2,0,0,1,0-.07l0-.32A2,2,0,0,1,47.54,35.58Z"/><path class="cls-1" d="M47.21,35.78a3.07,3.07,0,0,1-.34,2.91,4.11,4.11,0,0,1-2.78,2.09h0s0,0,0,0a4,4,0,0,0,2.74-2.08,3,3,0,0,0,.34-2.87,1.67,1.67,0,0,0-1.48-.71s0,0,0,0A1.68,1.68,0,0,1,47.21,35.78Z"/><path class="cls-1" d="M47.18,35.8a3,3,0,0,1-.34,2.87,4,4,0,0,1-2.74,2.08s0,0,0,0a4.11,4.11,0,0,0,2.7-2.06,3,3,0,0,0,.33-2.83,1.63,1.63,0,0,0-1.45-.69v0h0A1.67,1.67,0,0,1,47.18,35.8Z"/><path class="cls-1" d="M45.83,33.09v0h0v0Z"/><path class="cls-1" d="M45.83,33v.07h0V32.7h0a.13.13,0,0,1,0,.06Z"/><circle class="cls-1" cx="45.81" cy="33.14" r="0.03"/><path class="cls-1" d="M45.79,33.16h0c0,.49,0,1-.08,1.44h0C45.76,34.13,45.78,33.65,45.79,33.16Z"/><path class="cls-1" d="M45.82,32.67a0,0,0,0,1,0,0h0v0Z"/><path class="cls-1" d="M45.82,32.66h0a.06.06,0,0,0,0,0h0Z"/><path class="cls-1" d="M45.82,32.63h0c-.09-1-1.38-2-3.65-2.64a27.47,27.47,0,0,0-5.37-.94q-1.53-.12-3.15-.12h-.73s0,0,0,0H32.4L31,29c-.62,0-1.23.1-1.82.16l-1.63.25h0l-.15,0-.17,0-.4.08c-.39.08-.76.17-1.12.26l-.64.18c-.31.09-.59.19-.86.29l-.51.2a5.52,5.52,0,0,0-1.83,1.19,1.68,1.68,0,0,0-.47,1.09c0,4.51,1.32,8.3,3.8,11a11.4,11.4,0,0,0,16.78,0l.38-.43h0c-.12.15-.26.31-.39.45a11.43,11.43,0,0,1-16.82,0c-2.5-2.67-3.81-6.47-3.81-11a1.67,1.67,0,0,1,.47-1.11,4.64,4.64,0,0,1,1.66-1.11l.17-.07h0l.52-.2c.26-.1.55-.2.86-.29s.43-.13.65-.18.72-.18,1.11-.26l.31-.06.09,0,.32-.06h0l1.63-.24C29.8,29.07,30.41,29,31,29l1.12-.06h.43l.27,0h.75c1.08,0,2.14.05,3.15.13a26.47,26.47,0,0,1,5.38.94C44.42,30.64,45.72,31.59,45.82,32.63Z"/><path class="cls-1" d="M45.79,33.09v0h0v0Z"/><path class="cls-1" d="M45.79,33v.07h0V32.7h0V33Z"/><circle class="cls-1" cx="45.78" cy="32.68" r="0.02"/><path class="cls-1" d="M45.78,32.63a.06.06,0,0,1,0,0h0a.06.06,0,0,0,0,0Z"/><circle class="cls-1" cx="45.78" cy="33.14" r="0.02"/><path class="cls-1" d="M45.76,33.16h0c0,.49,0,1-.07,1.44h0C45.72,34.13,45.75,33.64,45.76,33.16Z"/><path class="cls-1" d="M45.78,32.63h0a2.11,2.11,0,0,0-1-1.41A8.72,8.72,0,0,0,42.12,30a26.42,26.42,0,0,0-5.36-.93c-1-.09-2.08-.13-3.15-.13h-.5c.1.05.16.1.17.16s-.09.18-.18.24h.51c1.19,0,2.36,0,3.46.15a29.12,29.12,0,0,1,3.58.54c.28.07.56.13.83.21,2.42.65,3.87,1.58,3.89,2.49h0a.1.1,0,0,0,0,0v0c0-.45-.35-.9-1-1.33a10.25,10.25,0,0,0-2.84-1.15l-.84-.2a27.19,27.19,0,0,0-3.58-.54c-1.07-.1-2.23-.15-3.45-.15H33c.07-.05.61-.3-.09-.45h.72q1.62,0,3.15.12a27.47,27.47,0,0,1,5.37.94C44.4,30.67,45.69,31.61,45.78,32.63Z"/><path class="cls-1" d="M45.76,33.09v0l-.17,0h0a.24.24,0,0,1-.19-.11v-.1a.19.19,0,0,0,.19.17h0Z"/><path class="cls-1" d="M45.76,33v.07l-.17,0h0a.19.19,0,0,1-.19-.17h0v0a.19.19,0,0,1,.16-.18h0l.21,0V33Z"/><path class="cls-1" d="M45.76,32.67v0l-.21,0h0a.19.19,0,0,0-.16.18v-.11h0a.26.26,0,0,1,.16-.09h0Z"/><path class="cls-1" d="M45.75,32.63a.06.06,0,0,1,0,0l-.21,0h0a.26.26,0,0,0-.16.09v0h0a.23.23,0,0,1,.16-.08h0Z"/><path class="cls-1" d="M45.76,33.13v0l-.16,0h0a.22.22,0,0,1-.19-.09h0v0a.24.24,0,0,0,.19.11h0Z"/><circle class="cls-1" cx="45.74" cy="34.61" r="0.02"/><path class="cls-1" d="M45.75,34.63h0v0h0v0Z"/><path class="cls-1" d="M45.75,34.67l0,.32a.2.2,0,0,0,0,.07h0a.17.17,0,0,0,0-.07c0-.11,0-.21,0-.32Z"/><path class="cls-1" d="M45.75,32.63l-.2,0h0a.23.23,0,0,0-.16.08c0-.91-1.47-1.84-3.89-2.49-.27-.08-.55-.14-.83-.21a29.12,29.12,0,0,0-3.58-.54c-1.1-.1-2.27-.15-3.46-.15H33.1c.09-.06.19-.14.18-.24s-.07-.11-.17-.16h.5c1.07,0,2.13,0,3.15.13a26.42,26.42,0,0,1,5.36.93,8.72,8.72,0,0,1,2.64,1.2A2.11,2.11,0,0,1,45.75,32.63Z"/><path class="cls-1" d="M45.76,33.16c0,.48,0,1-.08,1.44h-.23a.28.28,0,0,0-.17.07c0-.51.08-1.05.09-1.58a.22.22,0,0,0,.19.09h0Z"/><circle class="cls-1" cx="45.7" cy="34.61" r="0.03"/><path class="cls-1" d="M45.72,34.63v0h0v0Z"/><path class="cls-1" d="M45.72,34.67c0,.11,0,.21,0,.32a.17.17,0,0,1,0,.07h0s0-.05,0-.08l0-.31h0Z"/><path class="cls-1" d="M45.71,35.06s0,0,0,0h0v0Z"/><path class="cls-1" d="M45.7,35.09h0v0h0v0Z"/><path class="cls-1" d="M45.7,35.13l0,.3a16.71,16.71,0,0,1-1.52,5.22l0,.06h0a16.1,16.1,0,0,0,1.58-5.58h0Z"/><path class="cls-1" d="M45.68,34.6v0h-.23a.22.22,0,0,0-.17.1v-.06a.28.28,0,0,1,.17-.07h.23Z"/><path class="cls-1" d="M45.68,34.63v0a.54.54,0,0,0-.18,0h0a.2.2,0,0,0-.18.14s0-.05,0-.07h0a.22.22,0,0,1,.17-.1h.23Z"/><path class="cls-1" d="M45.68,34.67l0,.31s0,.05,0,.08h-.26l0,0,0,0,0,0h0s0,0,0,0v-.09h0a.2.2,0,0,1,.18-.14h0A.54.54,0,0,1,45.68,34.67Z"/><path class="cls-1" d="M45.67,35.06v0h-.3l0,0h-.07v0h0l0,0,0,0,0,0h.29Z"/><path class="cls-1" d="M45.67,35.09v0h-.06a.34.34,0,0,0-.1,0h-.16l0,0h0l0,0v0h0s0,0,0,0l0,0h0v0h.07l0,0h.3Z"/><path class="cls-1" d="M45.66,35.13a16.1,16.1,0,0,1-1.58,5.58h0c.13-.26.26-.52.37-.78h0a16.73,16.73,0,0,0,1.16-4.32l.06-.48Z"/><path class="cls-1" d="M45.63,35.13l-.06.48a16.73,16.73,0,0,1-1.16,4.32h0c-.11.26-.24.52-.37.78H44l-.22,0h-.16A15.58,15.58,0,0,0,45.25,35l0,0h0l0,0h.16a.34.34,0,0,1,.1,0h0Z"/><path class="cls-1" d="M45.38,35.11h0Z"/><path class="cls-1" d="M45.37,32.78h0a.21.21,0,0,0,0,.11v-.1a.1.1,0,0,1,0,0h0Z"/><path class="cls-1" d="M45.37,32.93h0V33a.36.36,0,0,1,0-.09V32.9a.21.21,0,0,1,0-.11v.14Z"/><path class="cls-1" d="M45.37,33v0l0,0h0V33A.36.36,0,0,0,45.37,33Z"/><path class="cls-1" d="M45.37,33.08h0c0,.53,0,1.07-.09,1.58l0,0c0-.54.08-1.1.08-1.68Z"/><path class="cls-1" d="M45.33,32.93V33s0,0,0-.07V32.9a.17.17,0,0,1,0-.1v.13Z"/><path class="cls-1" d="M45.33,32.76v0a.17.17,0,0,0,0,.1v-.14c0-.89-1.43-1.8-3.83-2.45l-.84-.2a28.65,28.65,0,0,0-3.57-.54c-1.1-.1-2.26-.15-3.45-.15H33c-.19,0-.65,0-1.49,0a19.13,19.13,0,0,0-2.14.2l-.11,0-.81.1-.51.07h0c-.45.08-.88.16-1.28.25a16.59,16.59,0,0,0-2.55.77c-1.39.57-2.15,1.24-2.15,1.89,0,9.72,6.06,14.15,11.69,14.15a11.06,11.06,0,0,0,8.45-4,.09.09,0,0,0,0,0h0a11,11,0,0,1-8.44,3.95c-5.65,0-11.73-4.44-11.73-14.18,0-.66.78-1.35,2.18-1.92a15.63,15.63,0,0,1,2.55-.77c.41-.1.84-.17,1.29-.25H28l1.27-.17a21.57,21.57,0,0,1,2.26-.22c.84,0,1.3,0,1.48,0h.64c1.22,0,2.38.05,3.45.15a27.19,27.19,0,0,1,3.58.54l.84.2a10.25,10.25,0,0,1,2.84,1.15C45,31.86,45.33,32.31,45.33,32.76Z"/><path class="cls-1" d="M45.33,33h0c0,.58,0,1.14-.08,1.68a.25.25,0,0,0,0,.09c0-.6.08-1.22.09-1.85C45.31,33,45.31,33,45.33,33Z"/><path class="cls-2" d="M45.3,32.93v0c0,.63,0,1.25-.09,1.85v.06h0a1.49,1.49,0,0,0,0,.21c0,.1,0,.2,0,.3a15.57,15.57,0,0,1-1.65,5.41h0v0a.19.19,0,0,0-.07.11s0,0,0,0h0a12.84,12.84,0,0,1-1.22,1.82h0a.29.29,0,0,0-.1.12h0a11.06,11.06,0,0,1-8.45,4c-5.63,0-11.69-4.43-11.69-14.15,0-.65.76-1.32,2.15-1.89a16.59,16.59,0,0,1,2.55-.77c.4-.09.83-.17,1.28-.25h0l.51-.07.81-.1.11,0a19.13,19.13,0,0,1,2.14-.2c.84,0,1.3,0,1.49,0h.63c1.19,0,2.35,0,3.45.15a28.65,28.65,0,0,1,3.57.54l.84.2c2.4.65,3.83,1.56,3.83,2.45v.17Zm-1.42.55A1,1,0,0,0,44,33a.64.64,0,0,0,0-.2v0h0a1.22,1.22,0,0,0-.1-.24,1.8,1.8,0,0,0-.29-.35,2,2,0,0,0-.34-.26l-.12-.07-.07,0-.12-.06-.06,0a3.79,3.79,0,0,0-.78-.28,0,0,0,0,0-.06,0,.11.11,0,0,0,0,.05l0,0c.22.12.46.26.68.41a3.09,3.09,0,0,1,.31.23l.15.12.1.1,0,0a1.62,1.62,0,0,1,.2.28.67.67,0,0,1,.08.3.46.46,0,0,1,0,.2,8.6,8.6,0,0,0-3.81-1.46A37.15,37.15,0,0,0,29,31.62c-3.57.56-4.85,1.31-5.3,1.72a.57.57,0,0,1-.1-.32.87.87,0,0,1,.24-.56,2.45,2.45,0,0,1,.4-.37l.12-.09a5.06,5.06,0,0,1,.62-.37.06.06,0,0,0,0-.11,4.69,4.69,0,0,0-.68.31l-.14.07a2.68,2.68,0,0,0-.48.38,1.28,1.28,0,0,0-.24.32,1,1,0,0,0-.12.41.94.94,0,0,0,.08.43,1,1,0,0,0,.11.2h0l.1.14v0h0l.11.12.12.12.11.09-.05,0,.48.31.11.05.23.12.1,0,.14.07.11,0,.19.08.1,0,.5.17.3.1.3.08c.63.16,1.31.3,2.09.42h0l.34,0a35,35,0,0,0,4.68.31h.94l.62,0h.15l1.1-.07c.92-.07,1.74-.16,2.5-.29a17.7,17.7,0,0,0,2.45-.56,9.12,9.12,0,0,0,1.19-.46l.1,0,.19-.1.27-.17a2.88,2.88,0,0,0,.53-.44h0A1.55,1.55,0,0,0,43.88,33.48Z"/><path class="cls-1" d="M45.28,34.67v.06h0s0,0,0,.07,0-.06,0-.09Z"/><path class="cls-1" d="M45.27,34.91s0,0,0,0h0v0s0,0,0,0h0s0,0,0-.06,0-.06,0-.07,0,0,0,.07h0v.09Z"/><polygon class="cls-1" points="45.27 34.94 45.26 34.95 45.26 34.94 45.27 34.94"/><path class="cls-1" d="M45.24,34.92v0h0s0-.05,0-.07S45.24,34.9,45.24,34.92Z"/><path class="cls-1" d="M45.24,35v0a15.58,15.58,0,0,1-1.66,5.73h-.05A15.75,15.75,0,0,0,45.22,35s0,0,0,0h0Z"/><path class="cls-1" d="M45.25,34.72s0,.06,0,.09,0,0,0,.06h0s0,0,0,.07h0v0h0s0,0,0,0h0v-.06A.25.25,0,0,1,45.25,34.72Z"/><polygon class="cls-1" points="45.25 34.94 45.22 34.96 45.22 34.95 45.25 34.94"/><path class="cls-1" d="M45.22,35h0a15.75,15.75,0,0,1-1.68,5.81h0a15.57,15.57,0,0,0,1.65-5.41c0-.1,0-.2,0-.3a1.49,1.49,0,0,1,0-.21s0,0,0,0h0v0Z"/><path class="cls-1" d="M44.12,40.71s0,0,0,0h0s0,0,0,0Z"/><path class="cls-1" d="M44.1,40.75s0,0,0,0H44l0,0Z"/><path class="cls-1" d="M44.08,40.71s0,0,0,0h-.54v0h.22l.22,0h.11Z"/><path class="cls-1" d="M44.08,40.79c-.06.11-.12.24-.19.36l0,0a0,0,0,0,0,0,0h0a.43.43,0,0,0,0-.07l.18-.34h0Z"/><path class="cls-1" d="M43.53,40.83h.53l0,0h-.51a.17.17,0,0,0-.06.12,0,0,0,0,0,0,0l0,0V41l0,0s0,0,0,0l0-.05h0Z"/><path class="cls-1" d="M44,40.79l-.18.34a.43.43,0,0,1,0,.07h0a.73.73,0,0,0,0-.09L44,40.8Z"/><path class="cls-1" d="M44,40.8l-.17.31a.73.73,0,0,1,0,.09h-.17a.2.2,0,0,1-.14-.19v0h0l.06-.11H44Z"/><path class="cls-1" d="M44,33a1,1,0,0,1-.09.49,1.55,1.55,0,0,1-.24.37h0a2.88,2.88,0,0,1-.53.44l-.27.17-.19.1-.1,0a9.12,9.12,0,0,1-1.19.46,17.7,17.7,0,0,1-2.45.56c-.76.13-1.58.22-2.5.29L35.3,36h-.15l-.62,0h-.94a35,35,0,0,1-4.68-.31l-.34,0h0c-.78-.12-1.46-.26-2.09-.42l-.3-.08-.3-.1-.5-.17-.1,0-.19-.08-.11,0-.14-.07-.1,0-.23-.12-.11-.05-.48-.31.05,0-.11-.09-.12-.12-.11-.12h0v0l-.1-.14.06,0a.86.86,0,0,0,.07.1h0l.1.11a1.42,1.42,0,0,0,.13.12l.26.2.27.18.14.08.15.07.14.07.15.07.29.12c.2.07.39.15.6.21l.3.09.3.09c.69.17,1.39.31,2.09.42h0l.34,0a32.16,32.16,0,0,0,5,.31h.63l.62,0,1.25-.07c.83-.07,1.66-.16,2.49-.29a17.36,17.36,0,0,0,2.45-.56,8.48,8.48,0,0,0,1.18-.46l.29-.15.28-.17a2.91,2.91,0,0,0,.51-.43h0a1.57,1.57,0,0,0,.24-.37.92.92,0,0,0,.09-.47.69.69,0,0,0,0-.2,1.3,1.3,0,0,0-.39-.59,2,2,0,0,0-.34-.26L43,31.83l-.19-.09a4.07,4.07,0,0,0-.76-.28s0,0,0,0a0,0,0,0,0,0,0c.23.13.46.26.68.41l.32.23a.86.86,0,0,1,.14.13l.13.13a1.12,1.12,0,0,1,.21.29.69.69,0,0,1,.09.31.83.83,0,0,1,0,.22l0,0a.46.46,0,0,0,0-.2.67.67,0,0,0-.08-.3,1.62,1.62,0,0,0-.2-.28l0,0-.1-.1L43,32.18a3.09,3.09,0,0,0-.31-.23c-.22-.15-.46-.29-.68-.41l0,0a.11.11,0,0,1,0-.05,0,0,0,0,1,.06,0,3.79,3.79,0,0,1,.78.28l.06,0,.12.06.07,0,.12.07a2,2,0,0,1,.34.26,1.8,1.8,0,0,1,.29.35,1.22,1.22,0,0,1,.1.24h0v0A.64.64,0,0,1,44,33Z"/><path class="cls-1" d="M24.11,34.23l-.26-.2a1.42,1.42,0,0,1-.13-.12l-.1-.11h0a.86.86,0,0,1-.07-.1l.06,0h0l0,0,0,0h0l.11.11.11.11.26.2.11,0,.08.08.09.06.1.06.23.12.09,0,.15.07.1,0,.19.08.1,0,.5.17.3.09.3.08a19.54,19.54,0,0,0,2.08.42h0l.34,0a33.4,33.4,0,0,0,4.67.31h.94l.76,0,1.11-.07c.92-.07,1.73-.16,2.48-.28A17.34,17.34,0,0,0,41.33,35a8.14,8.14,0,0,0,1.18-.45l.1-.05.18-.1.28-.17a2.59,2.59,0,0,0,.5-.42v0h0a1.4,1.4,0,0,0,.23-.35h0a.88.88,0,0,0,.09-.4v0l0-.17h0v0a.94.94,0,0,0-.1-.23,1.24,1.24,0,0,0-.28-.34,1.59,1.59,0,0,0-.33-.25l-.11-.07-.07,0-.12-.06-.06,0a3.34,3.34,0,0,0-.71-.26c.21.12.43.24.64.38l.32.23a1.66,1.66,0,0,1,.14.13l.11.1,0,0a1.37,1.37,0,0,1,.21.3.68.68,0,0,1,.09.33.62.62,0,0,1,0,.23h0a.83.83,0,0,0,0-.22.69.69,0,0,0-.09-.31,1.12,1.12,0,0,0-.21-.29l-.13-.13a.86.86,0,0,0-.14-.13l-.32-.23c-.22-.15-.45-.28-.68-.41a0,0,0,0,1,0,0s0,0,0,0a4.07,4.07,0,0,1,.76.28l.19.09.18.11a2,2,0,0,1,.34.26,1.3,1.3,0,0,1,.39.59.69.69,0,0,1,0,.2.92.92,0,0,1-.09.47,1.57,1.57,0,0,1-.24.37h0a2.91,2.91,0,0,1-.51.43l-.28.17-.29.15a8.48,8.48,0,0,1-1.18.46,17.36,17.36,0,0,1-2.45.56c-.83.13-1.66.22-2.49.29L35.15,36l-.62,0H33.9a32.16,32.16,0,0,1-5-.31l-.34,0h0c-.7-.11-1.4-.25-2.09-.42l-.3-.09-.3-.09c-.21-.06-.4-.14-.6-.21L25,34.7l-.15-.07-.14-.07-.15-.07-.14-.08Z"/><path class="cls-1" d="M43.91,33v0a.88.88,0,0,1-.09.4h0l0,0-.19-.17a.62.62,0,0,0,0-.23.68.68,0,0,0-.09-.33,1.37,1.37,0,0,0-.21-.3l0,0-.11-.1a1.66,1.66,0,0,0-.14-.13l-.32-.23c-.21-.14-.43-.26-.64-.38a3.34,3.34,0,0,1,.71.26l.06,0,.12.06.07,0,.11.07a1.59,1.59,0,0,1,.33.25,1.24,1.24,0,0,1,.28.34.94.94,0,0,1,.1.23v0h0Z"/><path class="cls-1" d="M43.86,41.2a.08.08,0,0,0,0,0h0l0,0Z"/><path class="cls-1" d="M43.84,41.24h0s0,0,0,0h0l0,0Z"/><path class="cls-1" d="M43.82,33.44h0a1.4,1.4,0,0,1-.23.35h0v0a2.59,2.59,0,0,1-.5.42l-.28.17-.18.1-.1.05a8.14,8.14,0,0,1-1.18.45,17.34,17.34,0,0,1-2.45.57c-.75.12-1.56.21-2.48.28l-1.11.07-.76,0h-.94a33.4,33.4,0,0,1-4.67-.31l-.34,0h0a19.54,19.54,0,0,1-2.08-.42l-.3-.08-.3-.09-.5-.17-.1,0-.19-.08-.1,0-.15-.07-.09,0-.23-.12-.1-.06-.09-.06-.08-.08-.11,0-.26-.2-.11-.11-.11-.11h0l0,0,0,0,.28.13h0l0,0,0-.07.06.05.11.08H24l.31.1a8,8,0,0,0,1.79.76l.47.13.31.09.27.06.07,0,.19,0,.62.13.58.1.38.06c.5.07,1,.13,1.57.17l.71.06c.85.06,1.75.08,2.66.07h.62l.62,0h.15l1.09-.07c.85-.06,1.67-.17,2.45-.3l.81-.15a13.56,13.56,0,0,0,1.59-.41h.05l.42-.14.11-.05.18-.07.11,0,.07,0,.2-.09.1-.05.17-.09L42.9,34a1.81,1.81,0,0,0,.42-.33l.12.1,0,0,.32-.32,0,0Z"/><path class="cls-1" d="M43.82,41.2l0,0h0s0,0,0,0v0h0Z"/><path class="cls-1" d="M43.8,41.27h0a12.26,12.26,0,0,1-1,1.53h0a12.2,12.2,0,0,0,1-1.53Z"/><path class="cls-1" d="M43.81,33.44l0,0-.32.32,0,0-.12-.1,0,0,.11.1.3-.29-.18-.16s0,0,0,0l.19.17Z"/><path class="cls-1" d="M43.8,41.24l0,0h0l0,0Z"/><path class="cls-1" d="M43.78,41.2v0s0,0,0,0H43.6a.25.25,0,0,1-.17-.19l0,0a0,0,0,0,1,0,0v0a.2.2,0,0,0,.14.19h.17Z"/><path class="cls-1" d="M43.74,41.27h0a12.2,12.2,0,0,1-1,1.53h0A13.42,13.42,0,0,0,43.74,41.27Z"/><path class="cls-1" d="M43.76,41.24l0,0h-.15a.28.28,0,0,1-.18-.17h0s0,0,0,0a.25.25,0,0,0,.17.19h.16Z"/><path class="cls-1" d="M43.76,33.44l-.3.29-.11-.1h0l.09.08.25-.25-.15-.12a.08.08,0,0,0,0,0Z"/><path class="cls-1" d="M43.7,41.27h0a13.42,13.42,0,0,1-1,1.53h0l-.16,0h0l-.2,0h-.06a13.32,13.32,0,0,0,1.13-1.68.28.28,0,0,0,.18.17h.11Z"/><path class="cls-1" d="M43.71,33.44l-.25.25-.09-.08a1,1,0,0,0,.19-.29Z"/><path class="cls-1" d="M43.59,33.24s0,0,0,0l0,0,0,0Z"/><path class="cls-1" d="M43.58,33.28a.08.08,0,0,1,0,0l0,0a.06.06,0,0,0,0,0Z"/><path class="cls-1" d="M43.57,33.23l0,0,0,0a0,0,0,0,1,0,0Z"/><path class="cls-1" d="M43.54,33.3l0,0a1,1,0,0,1-.19.29l0,0A1.37,1.37,0,0,0,43.54,33.3Z"/><path class="cls-1" d="M43.55,33.26a.06.06,0,0,1,0,0l0,0a0,0,0,0,1,0,0Z"/><path class="cls-1" d="M43.54,33.21a0,0,0,0,0,0,0,8.42,8.42,0,0,0-3.8-1.46A36.72,36.72,0,0,0,29,31.66c-3.6.56-4.87,1.31-5.3,1.71,0,0,0,0,0,0,.45-.41,1.73-1.16,5.3-1.72a37.15,37.15,0,0,1,10.72.13A8.6,8.6,0,0,1,43.54,33.21Z"/><path class="cls-1" d="M43.52,33.27l0,0a1.37,1.37,0,0,1-.2.29l0,0a.86.86,0,0,0,.19-.29Z"/><path class="cls-1" d="M43.54,40.86l-.06.11h0a.17.17,0,0,1,.06-.12Z"/><path class="cls-1" d="M43.53,40.78v0h0l0,.05a.05.05,0,0,0,0,0l0,0,0,.05V41h0s0,0,0,0a1.05,1.05,0,0,1,.07-.11v0h.05Z"/><rect class="cls-1" x="43.52" y="40.82" width="0.01" height="0.01"/><path class="cls-1" d="M43.53,33.24a0,0,0,0,0,0,0h0a8.22,8.22,0,0,0-3.79-1.45A36.94,36.94,0,0,0,29,31.69c-3.64.57-4.88,1.33-5.29,1.72a.08.08,0,0,1,0,0c.43-.4,1.7-1.15,5.3-1.71a36.72,36.72,0,0,1,10.71.12A8.42,8.42,0,0,1,43.53,33.24Z"/><path class="cls-1" d="M43.52,40.82h0Z"/><path class="cls-1" d="M43.48,40.88s0,0,0,0A.05.05,0,0,1,43.48,40.88Z"/><path class="cls-1" d="M43.48,40.83a1.05,1.05,0,0,0-.07.11A.19.19,0,0,1,43.48,40.83Z"/><path class="cls-1" d="M43.43,41v0s0,0,0,0,0,0,0,0l0-.05Z"/><path class="cls-1" d="M43.41,41.08h0a13.32,13.32,0,0,1-1.13,1.68.07.07,0,0,0-.06,0A10.93,10.93,0,0,0,43.4,41S43.41,41.06,43.41,41.08Z"/><path class="cls-1" d="M43.4,41v0a10.93,10.93,0,0,1-1.18,1.75h0A12.84,12.84,0,0,0,43.4,41Z"/><path class="cls-1" d="M43.51,33.27a.86.86,0,0,1-.19.29h0a8.24,8.24,0,0,0-3.65-1.39A36.19,36.19,0,0,0,29.08,32c-3.64.56-4.78,1.33-5.1,1.64h0l0,0-.07-.08h0l0,0-.06-.08h0l0,0c.41-.39,1.65-1.15,5.29-1.72a36.94,36.94,0,0,1,10.69.13A8.22,8.22,0,0,1,43.51,33.27Z"/><path class="cls-1" d="M43.37,33.61h0l0,0h0Z"/><ellipse class="cls-1" cx="43.33" cy="33.63" rx="0.03" ry="0.02" transform="translate(-11.09 40.49) rotate(-45)"/><path class="cls-1" d="M43.32,33.56l0,0h0l0,0h0Z"/><path class="cls-1" d="M43.33,33.61l0,0,0,0,0,0Z"/><path class="cls-1" d="M43.31,33.56h0a8,8,0,0,0-3.63-1.39,36.83,36.83,0,0,0-10.57-.13c-3.65.57-4.78,1.34-5.09,1.63l0,0c.32-.31,1.46-1.08,5.1-1.64a36.19,36.19,0,0,1,10.58.13A8.24,8.24,0,0,1,43.31,33.56Z"/><path class="cls-1" d="M24.05,33.79h0l.23.18h0a7.61,7.61,0,0,0,1.78.75l.47.14.31.08.27.07.07,0,.19,0,.61.12.58.1.38.06c.53.07,1.05.13,1.58.18l.71.06c.88.05,1.77.08,2.65.07h.62l.62,0c.41,0,.82,0,1.23-.08q1.25-.1,2.46-.3l.8-.15a14.26,14.26,0,0,0,1.59-.41h.05l.53-.19.28-.11.28-.12.27-.14.25-.15a1.94,1.94,0,0,0,.42-.32l0,0a1.81,1.81,0,0,1-.42.33l-.26.15-.17.09-.1.05-.2.09-.07,0-.11,0-.18.07-.11.05-.42.14h-.05a13.56,13.56,0,0,1-1.59.41l-.81.15c-.78.13-1.6.24-2.45.3l-1.09.07h-.15l-.62,0H33.9c-.91,0-1.81,0-2.66-.07l-.71-.06c-.54,0-1.07-.1-1.57-.17l-.38-.06-.58-.1-.62-.13-.19,0-.07,0L26.85,35l-.31-.09-.47-.13A8,8,0,0,1,24.28,34l-.31-.1h.17L24,33.81,24,33.76h0Z"/><path class="cls-1" d="M43.26,33.61l0,0a1.94,1.94,0,0,1-.42.32l-.25.15-.27.14-.28.12-.28.11-.53.19h-.05a14.26,14.26,0,0,1-1.59.41l-.8.15q-1.21.19-2.46.3c-.41,0-.82.06-1.23.08l-.62,0H33.9c-.88,0-1.77,0-2.65-.07l-.71-.06c-.53-.05-1.05-.11-1.58-.18l-.38-.06-.58-.1-.61-.12-.19,0-.07,0-.27-.07-.31-.08-.47-.14A7.61,7.61,0,0,1,24.3,34h0l-.23-.18,0,0v0h0l.05,0,.24.17h0a8,8,0,0,0,1.76.74l.47.14.3.08.27.07h.08l.18,0,.62.13.58.1.38.06c.5.07,1,.13,1.57.18l.71,0c.85.06,1.74.09,2.65.08l.62,0,.76,0,1.09-.07c.85-.07,1.67-.17,2.45-.31l.8-.15a16,16,0,0,0,1.59-.4l0,0,.41-.14.12,0,.18-.07.1,0,.07,0,.2-.09.1,0,.17-.09.26-.15A1.76,1.76,0,0,0,43.26,33.61Z"/><path class="cls-1" d="M43.29,33.59l0,0a8.14,8.14,0,0,0-3.61-1.38,36.39,36.39,0,0,0-10.56-.12c-3.66.57-4.77,1.32-5.07,1.61l0,0c.31-.29,1.44-1.06,5.09-1.63a36.83,36.83,0,0,1,10.57.13A8,8,0,0,1,43.29,33.59Z"/><path class="cls-1" d="M42.81,42.8s0,0,0,0h0l0,0Z"/><path class="cls-1" d="M42.79,42.83s0,0,0,0h0l0,0Z"/><path class="cls-1" d="M42.78,42.8l0,0h0v0h.05Z"/><path class="cls-1" d="M42.77,42.86l-.26.33s0,0,0,0h0l.05-.06a3.76,3.76,0,0,1,.25-.31h0Z"/><path class="cls-1" d="M42.76,42.83l0,0h-.05s0,0,0,0h0Z"/><path class="cls-1" d="M42.74,42.86a3.76,3.76,0,0,0-.25.31l-.05.06h0l.07-.09a3.45,3.45,0,0,0,.23-.28Z"/><path class="cls-1" d="M42.73,42.8h0v0h-.19l-.19,0a.16.16,0,0,0-.1,0s0,0,0,0h.06l.2,0h0Z"/><path class="cls-1" d="M42.71,42.83s0,0,0,0h-.16l-.2,0h0a.17.17,0,0,0-.1,0h0l0,0a.16.16,0,0,1,.1,0l.19,0h.18Z"/><path class="cls-1" d="M42.69,42.86a3.45,3.45,0,0,1-.23.28l-.07.09h0l-.09,0h0a.21.21,0,0,1-.13-.21s0,0,0,0h0l.09-.1a.17.17,0,0,1,.1,0h0l.2,0h.16Z"/><path class="cls-1" d="M42.47,43.23h0l0,0h0l0,0h0Z"/><path class="cls-1" d="M42.45,43.26l0,0,0,0h0l0,0Z"/><path class="cls-1" d="M42.43,43.23l0,0h0v0h0Z"/><path class="cls-1" d="M42.41,43.26l0,0h0l0,0Z"/><path class="cls-1" d="M42.39,43.23h0v0h-.14a.25.25,0,0,1-.15-.23l0,0s0,0,0,0a.21.21,0,0,0,.13.21h0l.09,0Z"/><path class="cls-1" d="M42.38,43.29l-.38.43a11.4,11.4,0,0,1-16.78,0c-2.48-2.66-3.8-6.45-3.8-11a1.68,1.68,0,0,1,.47-1.09,5.52,5.52,0,0,1,1.83-1.19l.51-.2c.27-.1.55-.2.86-.29l.64-.18c.36-.09.73-.18,1.12-.26l.4-.08s.56.28.65.35c-.45.08-.88.15-1.29.25a15.63,15.63,0,0,0-2.55.77c-1.4.57-2.18,1.26-2.18,1.92,0,9.74,6.08,14.18,11.73,14.18A11,11,0,0,0,42.05,43v0h0A11.1,11.1,0,0,1,33.61,47c-5.67,0-11.76-4.45-11.76-14.22,0-.68.78-1.37,2.19-1.95A14.76,14.76,0,0,1,26.6,30c.38-.09.79-.17,1.22-.24l-.57-.29-.4.08c-.38.07-.75.16-1.11.25L25.1,30c-.31.1-.6.19-.86.29l-.5.2a.82.82,0,0,1-.19.09,4.66,4.66,0,0,0-1.63,1.09,1.63,1.63,0,0,0-.46,1.07c0,4.5,1.31,8.28,3.78,10.94A11.37,11.37,0,0,0,42,43.7c.12-.13.25-.27.36-.41h.05Z"/><path class="cls-1" d="M42.37,43.26l0,0h-.12a.23.23,0,0,1-.17-.23h0l0,0a.25.25,0,0,0,.15.23h.14Z"/><path class="cls-1" d="M42.33,43.29c-.11.14-.24.28-.36.41a11.37,11.37,0,0,1-16.73,0c-2.47-2.66-3.78-6.44-3.78-10.94a1.63,1.63,0,0,1,.46-1.07,4.66,4.66,0,0,1,1.63-1.09.82.82,0,0,0,.19-.09l.5-.2c.26-.1.55-.19.86-.29l.64-.18c.36-.09.73-.18,1.11-.25l.4-.08.57.29c-.43.07-.84.15-1.22.24a14.76,14.76,0,0,0-2.56.77c-1.41.58-2.19,1.27-2.19,1.95C21.85,42.53,27.94,47,33.61,47A11.1,11.1,0,0,0,42.05,43a.23.23,0,0,0,.17.23h.11Z"/><path class="cls-1" d="M42.28,42.77s0,0,0,0h-.05l0,0A.07.07,0,0,1,42.28,42.77Z"/><path class="cls-1" d="M42.24,42.81l0,0h0a.22.22,0,0,0-.09.1h0l0,0v0a.11.11,0,0,1,0-.05l0,0,.06-.07h.06Z"/><path class="cls-1" d="M42.22,42.78l0,0h0a.13.13,0,0,0-.06.07l0,0s0,0,0,0a.09.09,0,0,1,0,0h0l.1-.11h0Z"/><path class="cls-1" d="M42.21,42.85l-.09.1A.22.22,0,0,1,42.21,42.85Z"/><path class="cls-1" d="M42.18,42.83l-.06.07A.13.13,0,0,1,42.18,42.83Z"/><path class="cls-1" d="M42.17,42.79h0l-.1.11A.29.29,0,0,1,42.17,42.79Z"/><path class="cls-1" d="M42.09,42.94a.11.11,0,0,0,0,.05v0l0,0v0h0S42.08,43,42.09,42.94Z"/><path class="cls-1" d="M33.21,29.13c0,.08-.15.17-.21.21h0l-.1-.09a2.77,2.77,0,0,0-.37-.28h.37C33.15,29,33.2,29.09,33.21,29.13Z"/><path class="cls-1" d="M32.89,28.94c.7.15.16.4.09.45h0l-.11-.1A2.26,2.26,0,0,0,32.4,29h.49Zm.11.4c.06,0,.22-.13.21-.21s-.06-.1-.33-.16h-.37a2.77,2.77,0,0,1,.37.28l.1.09Z"/><path class="cls-1" d="M33,29.39c-.18,0-.64,0-1.48,0a21.57,21.57,0,0,0-2.26.22L28,29.81l-.07-.09-.3-.3,1.63-.25c.59-.06,1.2-.12,1.82-.16L32.4,29a2.26,2.26,0,0,1,.46.34Zm-.08,0s0,0,0-.05A4.56,4.56,0,0,0,32.4,29h-.24L31,29c-.63,0-1.24.1-1.81.17-.39,0-1.09.15-1.58.23a2.12,2.12,0,0,1,.26.26.27.27,0,0,1,.07.08l.44-.06.81-.11.11,0a19.13,19.13,0,0,1,2.15-.2C32.23,29.36,32.67,29.37,32.89,29.36Z"/><path class="cls-1" d="M32.84,29.31s0,0,0,.05c-.22,0-.66,0-1.4,0a19.13,19.13,0,0,0-2.15.2l-.11,0-.81.11-.44.06a.27.27,0,0,0-.07-.08,2.12,2.12,0,0,0-.26-.26c.49-.08,1.19-.19,1.58-.23.57-.07,1.18-.13,1.81-.17L32.16,29h.24A4.56,4.56,0,0,1,32.84,29.31Z"/><path class="cls-1" d="M32.86,28.93s0,0,0,0h0Z"/><path class="cls-1" d="M27.86,29.74a2.6,2.6,0,0,0-.29-.28l-.21,0Zm0,0,.07.09H27.9c-.09-.07-.65-.35-.65-.35l.17,0,.16,0h0Z"/><path class="cls-1" d="M27.57,29.46a2.6,2.6,0,0,1,.29.28l-.5-.25Z"/><path class="cls-1" d="M27.57,29.41h0l-.16,0Z"/><path class="cls-1" d="M25,31.56a.06.06,0,0,1,0,.07,5.06,5.06,0,0,0-.62.37l-.12.09a2.45,2.45,0,0,0-.4.37.87.87,0,0,0-.24.56.57.57,0,0,0,.1.32l0,0a.86.86,0,0,1-.09-.35.9.9,0,0,1,.24-.58,3,3,0,0,1,.41-.38l.12-.09A6.34,6.34,0,0,1,25,31.6s0,0,0,0,0,0,0,0c-.23.09-.46.19-.68.3l-.13.08a2.07,2.07,0,0,0-.47.37,1.28,1.28,0,0,0-.24.32.88.88,0,0,0-.11.4,1,1,0,0,0,.07.41.76.76,0,0,0,.09.18h0v0a1,1,0,0,1-.11-.2.94.94,0,0,1-.08-.43,1,1,0,0,1,.12-.41,1.28,1.28,0,0,1,.24-.32,2.68,2.68,0,0,1,.48-.38l.14-.07a4.69,4.69,0,0,1,.68-.31A.06.06,0,0,1,25,31.56Z"/><path class="cls-1" d="M24.82,31.64c-.19.07-.36.16-.53.24l-.13.08a2.24,2.24,0,0,0-.47.36,1.66,1.66,0,0,0-.23.31,1,1,0,0,0-.11.39.94.94,0,0,0,.07.4.8.8,0,0,0,.08.16h0l0,0a.76.76,0,0,1-.09-.18,1,1,0,0,1-.07-.41.88.88,0,0,1,.11-.4,1.28,1.28,0,0,1,.24-.32,2.07,2.07,0,0,1,.47-.37l.13-.08c.22-.11.45-.21.68-.3,0,0,0,0,0,0s0,0,0,0a6.34,6.34,0,0,0-.62.37l-.12.09a3,3,0,0,0-.41.38.9.9,0,0,0-.24.58.86.86,0,0,0,.09.35,0,0,0,0,1,0,0h0a.78.78,0,0,1-.11-.37,1,1,0,0,1,.25-.6A2.55,2.55,0,0,1,24.2,32l.13-.09A4.42,4.42,0,0,1,24.82,31.64Z"/><path class="cls-1" d="M24.29,31.88c.17-.08.34-.17.53-.24a4.42,4.42,0,0,0-.49.31L24.2,32a2.55,2.55,0,0,0-.41.38,1,1,0,0,0-.25.6.78.78,0,0,0,.11.37.84.84,0,0,0-.15.19.8.8,0,0,1-.08-.16.94.94,0,0,1-.07-.4,1,1,0,0,1,.11-.39,1.66,1.66,0,0,1,.23-.31,2.24,2.24,0,0,1,.47-.36Z"/><path class="cls-1" d="M24.05,33.78h0l-.06,0h0l0,0Z"/><path class="cls-1" d="M24,33.73v0l0,0A0,0,0,0,1,24,33.73Z"/><path class="cls-1" d="M24,33.7l0,0h0l0,0Z"/><path class="cls-1" d="M24,33.73a0,0,0,0,0,0,0l0,0h0Z"/><path class="cls-1" d="M24,33.7h0l0,0h0Z"/><path class="cls-1" d="M24,33.72l0,0h0l0,0Z"/><path class="cls-1" d="M24,33.73l0,0h0S24,33.74,24,33.73Z"/><path class="cls-1" d="M24,33.71h0l0,0s0,0,0,0h0Z"/><path class="cls-1" d="M24,33.72h0l0,0h0Z"/><path class="cls-1" d="M24,33.67h0l0,0Z"/><path class="cls-1" d="M24,33.73s0,0,0,0l0,0h0Z"/><path class="cls-1" d="M24,33.75h0l0,.07,0,0h0l-.28-.13h0a.05.05,0,0,1,0,0l.32.15Z"/><path class="cls-1" d="M24,33.68s0,0,0,0h0l-.1-.1h0l-.08-.09,0,0,.1.07,0,0h0l.07.08Z"/><path class="cls-1" d="M23.93,33.72l0,0-.06.07-.32-.15h0l0,0a.5.5,0,0,1,.14-.19h0v0a1,1,0,0,0-.13.16l.32.15Z"/><path class="cls-1" d="M23.94,33.69h0l-.13-.11-.1-.12v0h0s0,0,0,0h0s0,0,0,0l0,0,.08.09h0Z"/><path class="cls-1" d="M23.81,33.6l.13.11h0l-.1-.09,0,0-.07-.09s0,0,0,0Z"/><path class="cls-1" d="M23.92,33.71h0l-.05.05-.32-.15a1,1,0,0,1,.13-.16h0v0s0,0,0,0l.07.09,0,0Z"/><path class="cls-1" d="M23.83,33.57h0Z"/><path class="cls-1" d="M23.77,33.45l.06.08-.1-.07s0,0,0,0,0,0,0,0l0,0Z"/><path class="cls-1" d="M23.72,33.37a.08.08,0,0,0,0,0s0,0,0,0h0l0,0S23.71,33.39,23.72,33.37Z"/><path class="cls-1" d="M23.71,33.34s0,0,0,0,0,0,0,0l0,0Z"/><path class="cls-1" d="M23.69,33.4l0,0,0,0Z"/><path class="cls-1" d="M23.71,33.43h0s0,0,0,0h0s0,0,0,0Z"/><path class="cls-1" d="M23.7,33.45h0v0Z"/><path class="cls-1" d="M23.67,33.37l0,0h0v0A0,0,0,0,0,23.67,33.37Z"/><path class="cls-1" d="M23.67,33.42h0Z"/><path class="cls-1" d="M23.68,33.41s0,0,0,0h0Z"/><path class="cls-1" d="M23.67,33.42h0a.5.5,0,0,0-.14.19h0s0,0,0,0h0a.84.84,0,0,1,.15-.19l0,0Z"/><path class="cls-1" d="M23.66,33.39v0l0,0Z"/><path class="cls-1" d="M23.57,33.67a.05.05,0,0,0,0,0l-.06,0-.05-.06h0l0,0s0,0,0,0a0,0,0,0,1,0,0l0,0Z"/><path class="cls-1" d="M23.56,33.66l0,0a0,0,0,0,0,0,0h0Z"/><path class="cls-1" d="M23.53,33.68l-.06,0h0v0Z"/><polygon class="cls-1" points="23.47 33.64 23.47 33.65 23.46 33.65 23.47 33.64"/></g></g></svg>