<svg xmlns="http://www.w3.org/2000/svg" viewBox="0 0 204.83 176.87"><defs><style>.cls-1{fill:#071a20;}.cls-2{fill:#d35341;}.cls-3{fill:#c2b69c;}.cls-4{fill:#3e7889;}</style></defs><g id="Calque_2" data-name="Calque 2"><g id="Layer_1" data-name="Layer 1"><path class="cls-1" d="M204.81,125.32a5.75,5.75,0,0,1-.32,2.34,7.35,7.35,0,0,1-1.28,2.24,9,9,0,0,1-4.32,2.88L197.7,130a14.31,14.31,0,0,0,1.71-.75,4.84,4.84,0,0,0,1.5-1.23,4.28,4.28,0,0,0,.64-1.06,2.89,2.89,0,0,0,.22-1.14,2.51,2.51,0,0,0-.29-1.14,3.24,3.24,0,0,0-.89-1.08,4.68,4.68,0,0,0-.94-.59,5.78,5.78,0,0,0-1.24-.43,12.46,12.46,0,0,0-1.63-.28q-.93-.11-2.16-.12l-3.38-.07a19.2,19.2,0,0,1-2.29-.18,12.07,12.07,0,0,1-1.89-.4,9,9,0,0,1-1.53-.62,7.75,7.75,0,0,1-1.25-.83,6.32,6.32,0,0,1-1.48-1.73,5,5,0,0,1-.66-2,5.34,5.34,0,0,1,.24-2.15,6.78,6.78,0,0,1,1.21-2.13,8.7,8.7,0,0,1,1.6-1.48,8,8,0,0,1,2.05-1.07l1.11,2.6a8,8,0,0,0-1.23.57,4,4,0,0,0-1.12,1,2.93,2.93,0,0,0-.77,2.13,2.78,2.78,0,0,0,1.14,2,3.86,3.86,0,0,0,.65.43,3.77,3.77,0,0,0,.85.33,7.2,7.2,0,0,0,1.15.24,15.33,15.33,0,0,0,1.55.13l5,.2,1.88.11a10.59,10.59,0,0,1,1.73.28,8.09,8.09,0,0,1,1.63.57,7.32,7.32,0,0,1,1.57,1,6.9,6.9,0,0,1,1.72,2A5.63,5.63,0,0,1,204.81,125.32Z"/><path class="cls-2" d="M189.91,82.69c-8.16,11.54-19.69,17.38-32.68,16.62a77.1,77.1,0,0,0,6.2-9.43c9.33-.28,16.63-7.27,20.41-13.87,4.17-7.29,4.91-14.86,1.93-19.77-1.5-2.48-4.61-5.34-11-5.52.25-2.91.4-5.89.45-8.92a20,20,0,0,1,2.19,0c.38,0,.76,0,1.13.08a19.52,19.52,0,0,1,14.8,9.25C198.72,59.72,197.46,71.23,189.91,82.69Z"/><path class="cls-1" d="M191.87,136.74a11,11,0,0,1-.92,4.48,13.82,13.82,0,0,1-2.79,4.13L170.07,126a13.89,13.89,0,0,1,4.31-2.51,11.18,11.18,0,0,1,4.53-.61,11.83,11.83,0,0,1,4.54,1.35,17.73,17.73,0,0,1,7.39,7.9A11.78,11.78,0,0,1,191.87,136.74Zm-3.11,1.81a7.16,7.16,0,0,0,0-2.62,10.16,10.16,0,0,0-1-3,14.58,14.58,0,0,0-2.34-3.23,14.24,14.24,0,0,0-3.07-2.55,9.9,9.9,0,0,0-2.89-1.19,7.36,7.36,0,0,0-2.62-.14,7.13,7.13,0,0,0-2.21.65L188,140.72A7.34,7.34,0,0,0,188.76,138.55Z"/><path class="cls-1" d="M199.71,37.79c.74-3.1-2.08-4.63-4.23-5.76s-4.37.74-5.87,3.65,2,5.25,2,5.25l-1.24,2.83c-.32-.26-.65-.51-1-.74a22,22,0,0,0-5.55-2.81l.48-2a3.21,3.21,0,0,0,2.9-.5c1.35-.95.79-4.55-1-5.51a10.88,10.88,0,0,0,.2-2.13c-.08-1.47-1.42-4.91-3-6s-2.35-.49-3.82-.82-5.38,2.45-5.66,3.65-.26,1.84-.91,2.35.78,1.11.84,2.3.2,2,.2,2a8.65,8.65,0,0,0,2.5,1.21c1,.18,1.88.4,1.88.4l0,.35-.52,3.54a25.08,25.08,0,0,0-2.6,0c-.42-6.14-8.09-11.75-21.71-15.85a157.08,157.08,0,0,0-31.82-5.56,59.9,59.9,0,0,0-8.12-10.27C111,5,101.7,0,101.7,0L90.63,6.8l-1.11.68s-2,5.63-2.46,6.65-4.84,2.46-6.75,2.26c-2.52-.27-3.36-4-4.82-4.92s-5.81-.8-7.57-.1c-1.56.61-5.53,3.79-5.53,3.79l-1.23,1.09a8.31,8.31,0,0,0-8,1.15L52,17.07c-.81-.27-5.19,1.06-5.19,1.06l-5.91-.95a48,48,0,0,1-1.45,7.26,4.49,4.49,0,0,1-.71,1.38,5.29,5.29,0,0,1-3.26,1.87l-.4,2.09L34.44,31l-.89,2.18a9.62,9.62,0,0,0-2.78,6.43c0,26.74,7.79,49.23,22.52,65a67.62,67.62,0,0,0,99.44,0c.83-.89,1.64-1.8,2.43-2.74a39.83,39.83,0,0,0,4.34.23c13,0,24.43-6.22,32.65-17.86a.05.05,0,0,0,0,0c4.27-6.47,6.66-12.93,7.1-19.21a25.53,25.53,0,0,0-3.6-15.35,22.81,22.81,0,0,0-4-4.79L193,41.73S199,40.89,199.71,37.79ZM181.15,36a1.5,1.5,0,0,0,.41,1.31,5.09,5.09,0,0,0,1.62.72l-.45,1.88a20.6,20.6,0,0,0-2.2-.5l.37-3.47ZM144.7,23.72c-5.45.43-12.08,4.79-12.08,4.79a49.24,49.24,0,0,0-7.33-4.8h0c-.53-1-1.13-2.07-1.79-3.17A166.6,166.6,0,0,1,144.7,23.72ZM143,39.39s-4.31-4.55-7.3-1.59a10.56,10.56,0,0,0-1.58,2c-.29-.34-1.24-1.44-2.4-2.69-.74-.79-1.56-1.63-2.37-2.37,8.17,1.06,17.39,3.07,23.63,5.44l.89.35Zm16.67,6.12a13.89,13.89,0,0,1-1.7,1.23l-1.52.9c-.52.27-1.06.53-1.59.79s-1.09.5-1.64.73-1.09.48-1.67.67c-1,.38-2.1.77-3.17,1.1l-.12,0-8.35-4.15-1.09-5.09-2.15-.84a4.71,4.71,0,0,1,1.47-.81,4.28,4.28,0,0,1,3.74,1.24C142.64,42,154.15,44.88,159.69,45.51Zm-34.46,1.68c5.59,2.63,13.1,3.35,13.1,3.35l.31,2.89c-1.55.33-3.13.61-4.69.88-4.81.82-9.67,1.4-14.54,1.79-2.44.21-4.88.34-7.33.47l-3.67.12c-1.22.05-2.44,0-3.67.06-5.13,0-10.28-.08-15.41-.42a4.17,4.17,0,0,1,1.91-1.89c1.53-.44,8.1-8.21,8.1-8.21s2-.48,3.89-.72a8.71,8.71,0,0,1,2.8,0c2.6.73,2.91,3,7.6,3.87C120.16,50.53,120.72,45.07,125.23,47.19Zm-5.67-13.37v0l1.8.15-.74,1-6.55-.33-3.62,3.75s-3.35,1.27-3.89,1.57a6.51,6.51,0,0,0-2.12,2.71l-1.53,1.23a24.09,24.09,0,0,0-3.38-2.23A10.63,10.63,0,0,0,96,41.28a29.62,29.62,0,0,0-3.38,2.12L89,42.29l-4.71,4.46-5.53.86-.21,0-3.41,0c3.11-1.66,9.24-5.53,8.6-9.69a6.2,6.2,0,0,0-1-2.49,5.78,5.78,0,0,0-1-1.15,204.73,204.73,0,0,1,21.7-1.14h.88C109.58,33.24,114.68,33.45,119.56,33.82ZM87.35,53.89,85.26,56l-.47,0c-3.11-.28-6.22-.63-9.31-1.06l-2.26-.34.12-4.2.5-.18s2.36-.54,5.17-.94c3.57-.52,7.86-.82,8.95.49C89.91,52.1,87.35,53.89,87.35,53.89Zm4-45.9,11.06-5.84,11.26,8.4s.92,4-4.41,1.84-6-5.12-9.72-2.35a18.32,18.32,0,0,1-8.66,3.34c-.34,0-.54-.05-.55-.17A11.19,11.19,0,0,1,91.36,8ZM68.62,19.56l7.9-.41s.45.55,1.09,1.28c.15.17.31.36.48.54a14.82,14.82,0,0,0,3,2.78c.77.39,2.35-1.47,4.46-3.48l.71-.66a21.35,21.35,0,0,1,3-2.31,10.91,10.91,0,0,1,2.13-1c.24-.08.49-.15.74-.21a5.17,5.17,0,0,1,3.66.93,18.4,18.4,0,0,1,2.74,2c.23.19.45.4.67.61a116.48,116.48,0,0,1,10,11.57l-1.29,0c-1.49,0-3,0-4.53,0a204.61,204.61,0,0,0-24.65,1.44,28,28,0,0,0-6.61-1.4c0-.2,0-.4,0-.6a12.91,12.91,0,0,0-2.69-8.46l-.44-.54a14.83,14.83,0,0,0-1.88-1.81L67,19.64Zm1.51,28.5,0,.26,0,0L64.81,53l-.23-.06c-.53-.12-1.06-.26-1.59-.39l-.21-8.7C64.72,47,70.13,48.06,70.13,48.06Zm-.22,3.73L69.78,54c-1.09-.21-2.18-.42-3.26-.66.93-.48,2.18-1,3.38-1.54ZM55.11,40a10.19,10.19,0,0,0,3.08.1l.18,11.14a46.27,46.27,0,0,1-10.56-4.48s-1-.66-1.44-1a5.54,5.54,0,0,1-.45-.37.76.76,0,0,0,.13-.23C47.9,43.22,51,41.49,55.11,40ZM52,39a23.79,23.79,0,0,0-7.53,4.77,4.47,4.47,0,0,1-.92-2.59A5.4,5.4,0,0,1,45,37.72a15.47,15.47,0,0,1,2.4-2.23c.09.12.19.23.28.34A13.46,13.46,0,0,0,52,39ZM36.39,30a4.56,4.56,0,0,0,1.37-1.87,14.89,14.89,0,0,1,1.64-2c.28-.31.61-.66,1-1,2-2,2.06-6.76,2.06-6.76l4.45,1.11a21.39,21.39,0,0,1,4.83-.85,16.12,16.12,0,0,0-2.07,2.35c-.63.12-1.29.21-1.95.33-1.72.31-2.91,3.6-3.33,4.93-.11.34-.16.55-.16.55s-6.84,4.19-7.86,4.19h-.06l-.18-.05C35.54,30.63,35.63,30.45,36.39,30Zm117.5,69.3-.6.73a66.48,66.48,0,0,1-23.44,17.87A65.16,65.16,0,0,1,103,123.68c-33.48,0-69.51-26.31-69.51-84.07,0-2.2,1.46-4.45,4.21-6.6a37.8,37.8,0,0,1,8.68-4.76,10,10,0,0,0,.51,6.46,15.06,15.06,0,0,0-2.83,2.18,8.55,8.55,0,0,0-1.39,1.89,5.53,5.53,0,0,0-.25,4.83,8.24,8.24,0,0,0,1.24,2l0,0,.05,0,0,0h0l.64.69a9.47,9.47,0,0,0,.73.69c.5.43,1,.83,1.55,1.21l1.63,1c.27.18.56.31.84.46l.84.44c.28.15.56.3.84.43l.87.38c.58.25,1.15.52,1.74.74,1.17.43,2.34.89,3.54,1.24l1.79.56,1.8.48a125,125,0,0,0,12.35,2.5l.22,0,2,.29c3.29.46,6.6.83,9.91,1.1.91.09,1.83.16,2.74.22l.45,0,.92,0c5.18.35,10.37.48,15.55.44,1.23,0,2.47,0,3.7,0l3.71-.11c2.47-.11,4.94-.23,7.4-.43,4.93-.37,9.85-.9,14.74-1.69a104.29,104.29,0,0,0,14.53-3.34,49.11,49.11,0,0,0,7-2.73c.57-.29,1.14-.57,1.7-.87l1.64-1a15.61,15.61,0,0,0,3-2.52h0a.18.18,0,0,0,.05-.07h0a8.82,8.82,0,0,0,1.44-2.17,5.8,5.8,0,0,0,.53-2.8,5,5,0,0,0-.13-.85,2.05,2.05,0,0,0-.07-.34h0c-.75-3.12-3.8-6.57-5.74-7.44a13.91,13.91,0,0,0-3.07-.72,19,19,0,0,0-1.48-2.51,15.15,15.15,0,0,0-4.12-4.2c7.23,1.94,13,4.29,16.86,6.81s6,5.22,6,7.87v1q0,5.81-.56,11.17l0,.34h0c-1.37,13.87-5,25.62-10.2,35.33l-.46.85A73,73,0,0,1,153.89,99.26Zm20.62-45.81c4.28.07,7.27,1.48,8.93,4.2,2.42,4,1.65,10.68-2,17-3.18,5.56-9.06,11.43-16.53,12.38A97.21,97.21,0,0,0,174.51,53.45Zm18.84-2.35c5.37,8.62,4.11,20.13-3.44,31.59-8.16,11.54-19.69,17.38-32.68,16.62a77.1,77.1,0,0,0,6.2-9.43c9.33-.28,16.63-7.27,20.41-13.87,4.17-7.29,4.91-14.86,1.93-19.77-1.5-2.48-4.61-5.34-11-5.52.25-2.91.4-5.89.45-8.92a20,20,0,0,1,2.19,0c.38,0,.76,0,1.13.08A19.52,19.52,0,0,1,193.35,51.1Z"/><path class="cls-1" d="M179.44,147.13a6.23,6.23,0,0,1,.33,2.6,4.73,4.73,0,0,1-.8,2.21,6.87,6.87,0,0,1-1.86,1.82,7,7,0,0,1-2.35,1.1,4.79,4.79,0,0,1-2.35,0,6.06,6.06,0,0,1-2.31-1.23,12.11,12.11,0,0,1-2.27-2.55l-10.64-15.36,2.49-1.72L170.1,149a10.8,10.8,0,0,0,1.47,1.76,4.53,4.53,0,0,0,1.35.9,2.49,2.49,0,0,0,1.28.14,3.14,3.14,0,0,0,1.21-.53,3.06,3.06,0,0,0,.92-1,2.32,2.32,0,0,0,.32-1.24,4.28,4.28,0,0,0-.36-1.59,10.93,10.93,0,0,0-1.14-2l-10.42-15.06,2.48-1.72,10.64,15.37A12.1,12.1,0,0,1,179.44,147.13Z"/><path class="cls-2" d="M172.51,39.61v1q0,5.81-.56,11.17l0,.34h0c-1.37,13.87-5,25.62-10.2,35.33l-.46.85a73,73,0,0,1-7.37,10.93l-.6.73a66.48,66.48,0,0,1-23.44,17.87A65.16,65.16,0,0,1,103,123.68c-33.48,0-69.51-26.31-69.51-84.07,0-2.2,1.46-4.45,4.21-6.6a37.8,37.8,0,0,1,8.68-4.76,10,10,0,0,0,.51,6.46,15.06,15.06,0,0,0-2.83,2.18,8.55,8.55,0,0,0-1.39,1.89,5.53,5.53,0,0,0-.25,4.83,8.24,8.24,0,0,0,1.24,2l0,0,.05,0,0,0h0l.64.69a9.47,9.47,0,0,0,.73.69c.5.43,1,.83,1.55,1.21l1.63,1c.27.18.56.31.84.46l.84.44c.28.15.56.3.84.43l.87.38c.58.25,1.15.52,1.74.74,1.17.43,2.34.89,3.54,1.24l1.79.56,1.8.48a125,125,0,0,0,12.35,2.5l.22,0,2,.29c3.29.46,6.6.83,9.91,1.1.91.09,1.83.16,2.74.22l.45,0,.92,0c5.18.35,10.37.48,15.55.44,1.23,0,2.47,0,3.7,0l3.71-.11c2.47-.11,4.94-.23,7.4-.43,4.93-.37,9.85-.9,14.74-1.69a104.29,104.29,0,0,0,14.53-3.34,49.11,49.11,0,0,0,7-2.73c.57-.29,1.14-.57,1.7-.87l1.64-1a15.61,15.61,0,0,0,3-2.52h0a.18.18,0,0,0,.05-.07h0a8.82,8.82,0,0,0,1.44-2.17,5.8,5.8,0,0,0,.53-2.8,5,5,0,0,0-.13-.85,2.05,2.05,0,0,0-.07-.34h0c-.75-3.12-3.8-6.57-5.74-7.44a13.91,13.91,0,0,0-3.07-.72,19,19,0,0,0-1.48-2.51,15.15,15.15,0,0,0-4.12-4.2c7.23,1.94,13,4.29,16.86,6.81S172.51,37,172.51,39.61Z"/><path class="cls-1" d="M148.71,139.25l18.57,20.59-2.92,1.44-2.93-3.36-5.63,2.78.9,4.36-2.92,1.44Zm10.79,16.44L155,150.47,153,148l.8,3,1.39,6.77Z"/><path class="cls-3" d="M159.69,45.51a13.89,13.89,0,0,1-1.7,1.23l-1.52.9c-.52.27-1.06.53-1.59.79s-1.09.5-1.64.73-1.09.48-1.67.67c-1,.38-2.1.77-3.17,1.1l-.12,0-8.35-4.15-1.09-5.09-2.15-.84a4.71,4.71,0,0,1,1.47-.81,4.28,4.28,0,0,1,3.74,1.24C142.64,42,154.15,44.88,159.69,45.51Z"/><path class="cls-4" d="M153.89,40.56,143,39.39s-4.31-4.55-7.3-1.59a10.56,10.56,0,0,0-1.58,2c-.29-.34-1.24-1.44-2.4-2.69-.74-.79-1.56-1.63-2.37-2.37,8.17,1.06,17.39,3.07,23.63,5.44Z"/><polygon class="cls-1" points="140.72 143.81 148.69 168.44 145.82 169.37 143.15 161.13 137.72 162.89 140.39 171.13 137.52 172.06 129.54 147.43 132.42 146.5 136.84 160.17 142.27 158.41 137.84 144.74 140.72 143.81"/><path class="cls-3" d="M138.64,53.43c-1.55.33-3.13.61-4.69.88-4.81.82-9.67,1.4-14.54,1.79-2.44.21-4.88.34-7.33.47l-3.67.12c-1.22.05-2.44,0-3.67.06-5.13,0-10.28-.08-15.41-.42a4.17,4.17,0,0,1,1.91-1.89c1.53-.44,8.1-8.21,8.1-8.21s2-.48,3.89-.72a8.71,8.71,0,0,1,2.8,0c2.6.73,2.91,3,7.6,3.87,6.53,1.17,7.09-4.29,11.6-2.17,5.59,2.63,13.1,3.35,13.1,3.35Z"/><path class="cls-2" d="M144.7,23.72c-5.45.43-12.08,4.79-12.08,4.79a49.24,49.24,0,0,0-7.33-4.8h0c-.53-1-1.13-2.07-1.79-3.17A166.6,166.6,0,0,1,144.7,23.72Z"/><path class="cls-1" d="M129.69,170.84l1.79,2.34A8.41,8.41,0,0,1,130,174a8.52,8.52,0,0,1-1.59.45,6.7,6.7,0,0,1-3-.16,6.48,6.48,0,0,1-2.83-1.81,12.82,12.82,0,0,1-2.38-3.74,26.08,26.08,0,0,1-1.71-6,26.66,26.66,0,0,1-.47-6.18,13,13,0,0,1,.94-4.33,6.3,6.3,0,0,1,4.83-3.89,8.11,8.11,0,0,1,1.65-.14,8.65,8.65,0,0,1,1.62.23l-.87,2.81a3.42,3.42,0,0,0-1.47,0,3.39,3.39,0,0,0-1.68.86,4.81,4.81,0,0,0-1.27,2,11.3,11.3,0,0,0-.59,3.32,22,22,0,0,0,.4,4.77,21.67,21.67,0,0,0,1.28,4.6,11.36,11.36,0,0,0,1.7,2.92,4.93,4.93,0,0,0,1.9,1.45,3.42,3.42,0,0,0,1.87.22A3.48,3.48,0,0,0,129.69,170.84Z"/><path class="cls-4" d="M121.36,33.94l-.74,1-6.55-.33-3.62,3.75s-3.35,1.27-3.89,1.57a6.51,6.51,0,0,0-2.12,2.71l-1.53,1.23a24.09,24.09,0,0,0-3.38-2.23A10.63,10.63,0,0,0,96,41.28a29.62,29.62,0,0,0-3.38,2.12L89,42.29l-4.71,4.46-5.53.86-.21,0-3.41,0c3.11-1.66,9.24-5.53,8.6-9.69a6.2,6.2,0,0,0-1-2.49,5.78,5.78,0,0,0-1-1.15,204.73,204.73,0,0,1,21.7-1.14h.88c5.22,0,10.32.23,15.2.6v0Z"/><path class="cls-3" d="M109.27,12.39c-5.32-2.15-6-5.12-9.72-2.35a18.32,18.32,0,0,1-8.66,3.34c-.34,0-.54-.05-.55-.17a11.19,11.19,0,0,1,1-5.22l11.06-5.84,11.26,8.4S114.6,14.54,109.27,12.39Z"/><path class="cls-1" d="M109.77,170.49a7.09,7.09,0,0,1-.43,2.63,5.68,5.68,0,0,1-1.28,2,5.8,5.8,0,0,1-2,1.27,7.4,7.4,0,0,1-2.54.48,9.15,9.15,0,0,1-2.73-.38,8.59,8.59,0,0,1-2.26-1l1.35-2.72a14.49,14.49,0,0,0,1.68.82,4.77,4.77,0,0,0,1.91.34,4.1,4.1,0,0,0,1.22-.2,2.69,2.69,0,0,0,1-.57,2.73,2.73,0,0,0,.68-1,3.2,3.2,0,0,0,.24-1.37,4.88,4.88,0,0,0-.16-1.11,7,7,0,0,0-.47-1.22,13.13,13.13,0,0,0-.86-1.42c-.35-.52-.78-1.09-1.3-1.72l-2.14-2.61a20,20,0,0,1-1.35-1.87,12,12,0,0,1-.92-1.7,8.74,8.74,0,0,1-.52-1.57,7.57,7.57,0,0,1-.18-1.48,6.42,6.42,0,0,1,.36-2.26,5,5,0,0,1,1.1-1.8,5.19,5.19,0,0,1,1.8-1.21,6.41,6.41,0,0,1,2.4-.46,8.51,8.51,0,0,1,2.17.25,8.27,8.27,0,0,1,2.14.86L107.45,154a7.7,7.7,0,0,0-1.23-.57,4,4,0,0,0-1.46-.23,3,3,0,0,0-2.12.79,2.85,2.85,0,0,0-.76,2.15,4.14,4.14,0,0,0,.09.77,4.51,4.51,0,0,0,.3.87,8.59,8.59,0,0,0,.57,1c.24.37.54.8.91,1.27l3.1,3.95c.4.51.78,1,1.13,1.5a10.71,10.71,0,0,1,.92,1.49,8.75,8.75,0,0,1,.62,1.62A7.64,7.64,0,0,1,109.77,170.49Z"/><path class="cls-3" d="M109.3,31.24l-1.29,0c-1.49,0-3,0-4.53,0a204.61,204.61,0,0,0-24.65,1.44,28,28,0,0,0-6.61-1.4c0-.2,0-.4,0-.6a12.91,12.91,0,0,0-2.69-8.46l-.44-.54a14.83,14.83,0,0,0-1.88-1.81L67,19.64l1.59-.08,7.9-.41s.45.55,1.09,1.28c.15.17.31.36.48.54a14.82,14.82,0,0,0,3,2.78c.77.39,2.35-1.47,4.46-3.48l.71-.66a21.35,21.35,0,0,1,3-2.31,10.91,10.91,0,0,1,2.13-1c.24-.08.49-.15.74-.21a5.17,5.17,0,0,1,3.66.93,18.4,18.4,0,0,1,2.74,2c.23.19.45.4.67.61A116.48,116.48,0,0,1,109.3,31.24Z"/><polygon class="cls-1" points="96.2 150.55 95.89 153.4 90.23 152.78 89.15 162.66 93.99 163.19 93.68 166.04 88.84 165.5 88.03 172.82 93.69 173.44 93.37 176.29 84.71 175.33 87.54 149.6 96.2 150.55"/><path class="cls-3" d="M87.35,53.89,85.26,56l-.47,0c-3.11-.28-6.22-.63-9.31-1.06l-2.26-.34.12-4.2.5-.18s2.36-.54,5.17-.94c3.57-.52,7.86-.82,8.95.49C89.91,52.1,87.35,53.89,87.35,53.89Z"/><path class="cls-1" d="M82.11,156.41a16,16,0,0,1-.46,5.45,15.83,15.83,0,0,1-2.1,5.06,11.63,11.63,0,0,1-3.29,3.4A11.08,11.08,0,0,1,72,172a14,14,0,0,1-5-.08l6.25-25.74a14,14,0,0,1,4.46,2.22,11.12,11.12,0,0,1,3,3.46A11.71,11.71,0,0,1,82.11,156.41Zm-3.51,4.71a14.23,14.23,0,0,0,.46-4,10.34,10.34,0,0,0-.59-3.08,7.5,7.5,0,0,0-1.33-2.26,7.31,7.31,0,0,0-1.75-1.49L70.8,169.25a7.65,7.65,0,0,0,2.24-.53,7.27,7.27,0,0,0,2.21-1.4,10,10,0,0,0,1.94-2.47A13.58,13.58,0,0,0,78.6,161.12Z"/><path class="cls-4" d="M70.13,48.06l0,.26,0,0L64.81,53l-.23-.06c-.53-.12-1.06-.26-1.59-.39l-.21-8.7C64.72,47,70.13,48.06,70.13,48.06Z"/><path class="cls-3" d="M69.91,51.79,69.78,54c-1.09-.21-2.18-.42-3.26-.66.93-.48,2.18-1,3.38-1.54Z"/><polygon class="cls-1" points="65.89 144.02 64.72 146.64 61.01 144.99 51.66 166.03 48.9 164.81 58.25 143.76 54.54 142.11 55.7 139.5 65.89 144.02"/><path class="cls-4" d="M58.37,51.2a46.27,46.27,0,0,1-10.56-4.48s-1-.66-1.44-1a5.54,5.54,0,0,1-.45-.37.76.76,0,0,0,.13-.23c1.85-1.88,5-3.61,9.06-5.14a10.19,10.19,0,0,0,3.08.1Z"/><path class="cls-1" d="M52,11.06c1.09.17,1.23,1.2.92,1.54s-1,.23-1,.23a2.25,2.25,0,0,1-.85.87,2.44,2.44,0,0,1-1.84,0,3.9,3.9,0,0,0-1,.79,1.24,1.24,0,0,1-2-.14c-.8-1.52,1.45-1.6,1.45-1.6a2.42,2.42,0,0,1,.28-.88,2.64,2.64,0,0,1,2.62-1.21A6.93,6.93,0,0,0,52,11.06Z"/><path class="cls-3" d="M51.72,18.53a16.12,16.12,0,0,0-2.07,2.35c-.63.12-1.29.21-1.95.33-1.72.31-2.91,3.6-3.33,4.93-.11.34-.16.55-.16.55s-6.84,4.19-7.86,4.19h-.06l-.18-.05c-.57-.19-.48-.37.28-.86a4.56,4.56,0,0,0,1.37-1.87,14.89,14.89,0,0,1,1.64-2c.28-.31.61-.66,1-1,2-2,2.06-6.76,2.06-6.76l4.45,1.11A21.39,21.39,0,0,1,51.72,18.53Z"/><path class="cls-1" d="M51.13,139.17a7.35,7.35,0,0,1,.23,3.52A10.39,10.39,0,0,1,50,146.28a10,10,0,0,1-3,3.23,7.31,7.31,0,0,1-3.89,1.23l-1.25,10.77-2.92-1.76,1.34-9.39a12.59,12.59,0,0,1-1.65-.59l-4.34,7.17-2.59-1.56,13.56-22.44a15.49,15.49,0,0,1,3.89,2.92A8.82,8.82,0,0,1,51.13,139.17Zm-2.9,3.23a5,5,0,0,0,.06-2,4.42,4.42,0,0,0-.71-1.74,6.39,6.39,0,0,0-1.39-1.41l-6,9.91a6.18,6.18,0,0,0,1.9.57,4.39,4.39,0,0,0,1.87-.17,5.23,5.23,0,0,0,1.76-1,7.45,7.45,0,0,0,1.55-1.88A7.36,7.36,0,0,0,48.23,142.4Z"/><path class="cls-2" d="M52,39a23.79,23.79,0,0,0-7.53,4.77,4.47,4.47,0,0,1-.92-2.59A5.4,5.4,0,0,1,45,37.72a15.47,15.47,0,0,1,2.4-2.23c.09.12.19.23.28.34A13.46,13.46,0,0,0,52,39Z"/><path class="cls-1" d="M36.87,12.74c.61,0,3.7.15,3.54.5a2.34,2.34,0,0,1-1.57,1.17c-.78.13-.55.76-1,1.15s-.89-.32-1.59.14S34.86,17.13,34,17.3s-1.23.11-1.39-.24a1.43,1.43,0,0,1,.62-2.15,3.31,3.31,0,0,1,1-.37,1.31,1.31,0,0,1,.37-.76,3.24,3.24,0,0,1,1.35-.49A1.34,1.34,0,0,1,36.87,12.74Z"/><path class="cls-1" d="M38.15,127l-10.9,25.49-2.53-2,1.82-4.07-4.89-3.95-3.58,2.65-2.53-2ZM30.6,137.39,32,134.57l-2.44,2L24,140.67l3.74,3Z"/><path class="cls-1" d="M29.48,120.5a2.27,2.27,0,0,1,.17.91,2.56,2.56,0,0,1-.24,1,3.42,3.42,0,0,1-.71,1c-1.21,1.2-3.35,1.82-6.44,1.87l0-2c.31,0,.64,0,1,0s.65,0,1-.1.6-.13.87-.21a4.33,4.33,0,0,0,.71-.3,2.13,2.13,0,0,1-.55-1.54,2.09,2.09,0,0,1,.63-1.41,2.37,2.37,0,0,1,.71-.47,2.25,2.25,0,0,1,.81-.16,2.28,2.28,0,0,1,.84.16,2.2,2.2,0,0,1,.78.54A2.34,2.34,0,0,1,29.48,120.5Z"/><polygon class="cls-1" points="20.03 109.58 21.94 111.92 4.1 126.53 8.33 131.7 6.14 133.49 0 125.98 20.03 109.58"/></g></g></svg>