<?xml version="1.0" encoding="utf-8"?>
<!-- Generator: Adobe Illustrator 25.3.0, SVG Export Plug-In . SVG Version: 6.00 Build 0)  -->
<svg version="1.1" id="Layer_1" xmlns="http://www.w3.org/2000/svg" xmlns:xlink="http://www.w3.org/1999/xlink" x="0px" y="0px"
	 viewBox="0 0 260 260" style="enable-background:new 0 0 260 260;" xml:space="preserve">
<style type="text/css">
	.st0{fill:#D34A37;}
</style>
<path class="st0" d="M164.6,64H95.4C78.1,64,64,78.1,64,95.4v69.2c0,17.3,14.1,31.4,31.4,31.4h69.2c17.3,0,31.4-14.1,31.4-31.4V95.4
	C196,78.1,181.9,64,164.6,64z M130,171.1c-22.7,0-41.1-18.4-41.1-41.1s18.4-41.1,41.1-41.1s41.1,18.4,41.1,41.1
	S152.7,171.1,130,171.1z M172.2,97.3c-5.3,0-9.6-4.3-9.6-9.6c0-5.3,4.3-9.6,9.6-9.6c5.3,0,9.6,4.3,9.6,9.6
	C181.8,93,177.5,97.3,172.2,97.3z M130,102.9c-14.9,0-27.1,12.2-27.1,27.1s12.2,27.1,27.1,27.1s27.1-12.2,27.1-27.1
	S144.9,102.9,130,102.9z M130,2C59.3,2,2,59.3,2,130s57.3,128,128,128s128-57.3,128-128S200.7,2,130,2z M210,164.6
	c0,25-20.4,45.4-45.4,45.4H95.4c-25,0-45.4-20.4-45.4-45.4V95.4C50,70.4,70.4,50,95.4,50h69.2c25,0,45.4,20.4,45.4,45.4V164.6z"/>
</svg>
