<svg xmlns="http://www.w3.org/2000/svg" viewBox="0 0 169.06 126.41"><defs><style>.cls-1{fill:#c2b69c;}.cls-2{fill:#3e7889;}.cls-3{fill:#d35341;}.cls-4{fill:#071a20;}</style></defs><g id="Calque_2" data-name="Calque 2"><g id="Layer_1" data-name="Layer 1"><path class="cls-1" d="M21,18.53a16.12,16.12,0,0,0-2.07,2.35c-.63.12-1.29.21-1.95.33-1.72.31-2.91,3.6-3.33,4.93-.11.34-.16.55-.16.55S6.6,30.88,5.58,30.88H5.52l-.18-.05c-.57-.19-.48-.37.28-.86A4.56,4.56,0,0,0,7,28.09a15.5,15.5,0,0,1,1.63-2c.29-.31.61-.65,1-1,2-2,2.06-6.76,2.06-6.76l4.45,1.11A21.39,21.39,0,0,1,21,18.53Z"/><path class="cls-1" d="M78.5,12.39c-5.32-2.15-6-5.12-9.72-2.35a18.32,18.32,0,0,1-8.66,3.34c-.34,0-.54-.05-.55-.17a11.19,11.19,0,0,1,1-5.22L71.65,2.15l11.26,8.4S83.83,14.54,78.5,12.39Z"/><path class="cls-1" d="M78.53,31.24l-1.29,0c-1.49,0-3,0-4.53,0a204.61,204.61,0,0,0-24.65,1.44,28,28,0,0,0-6.61-1.4c0-.2,0-.4,0-.6a12.91,12.91,0,0,0-2.69-8.46l-.44-.54a14.83,14.83,0,0,0-1.88-1.81l-.19-.16,1.59-.08,7.9-.41s.45.55,1.09,1.28c.15.17.31.36.48.54a14.82,14.82,0,0,0,3,2.78c.77.39,2.35-1.47,4.46-3.48l.71-.66a21.35,21.35,0,0,1,3-2.31,10.91,10.91,0,0,1,2.13-1c.24-.08.49-.15.74-.21a5.17,5.17,0,0,1,3.66.93,18.4,18.4,0,0,1,2.74,2c.23.19.45.4.67.61A116.48,116.48,0,0,1,78.53,31.24Z"/><path class="cls-1" d="M128.92,45.51a13.89,13.89,0,0,1-1.7,1.23l-1.52.9c-.52.27-1.06.53-1.59.79s-1.09.5-1.64.73-1.09.48-1.67.67c-1,.38-2.1.77-3.17,1.1l-.12,0-8.35-4.15-1.09-5.09-2.15-.84a4.71,4.71,0,0,1,1.47-.81,4.28,4.28,0,0,1,3.74,1.24C111.87,42,123.38,44.88,128.92,45.51Z"/><path class="cls-1" d="M39.14,51.79,39,54c-1.09-.21-2.18-.42-3.26-.66.93-.48,2.18-1,3.38-1.54Z"/><path class="cls-1" d="M56.58,53.89,54.49,56,54,56c-3.11-.28-6.22-.63-9.31-1.06l-2.26-.34.12-4.2.5-.18s2.36-.54,5.17-.94c3.57-.52,7.86-.82,8.95.49C59.14,52.1,56.58,53.89,56.58,53.89Z"/><path class="cls-1" d="M107.87,53.43c-1.55.33-3.13.61-4.69.88-4.81.82-9.67,1.4-14.54,1.79-2.44.21-4.88.34-7.33.47l-3.67.12c-1.22.05-2.44,0-3.67.06-5.13,0-10.28-.08-15.41-.42a4.17,4.17,0,0,1,1.91-1.89c1.53-.44,8.1-8.21,8.1-8.21s2-.48,3.89-.72a8.71,8.71,0,0,1,2.8,0c2.6.73,2.91,3,7.6,3.87,6.53,1.17,7.09-4.29,11.6-2.17,5.59,2.63,13.1,3.35,13.1,3.35Z"/><path class="cls-2" d="M123.12,40.56l-10.87-1.17s-4.31-4.55-7.3-1.59a10.56,10.56,0,0,0-1.58,2c-.29-.34-1.24-1.44-2.4-2.69-.74-.79-1.56-1.63-2.37-2.37,8.17,1.06,17.39,3.07,23.63,5.44Z"/><path class="cls-2" d="M39.36,48.06l0,.26,0,0L34,53l-.23-.06c-.53-.12-1.06-.26-1.59-.39L32,43.8C34,47,39.36,48.06,39.36,48.06Z"/><path class="cls-2" d="M27.6,51.2A46.27,46.27,0,0,1,17,46.72s-1-.66-1.44-1a5.54,5.54,0,0,1-.45-.37.76.76,0,0,0,.13-.23c1.85-1.88,5-3.61,9.06-5.14a10.19,10.19,0,0,0,3.08.1Z"/><path class="cls-2" d="M90.59,33.94l-.74,1-6.55-.33-3.62,3.75s-3.35,1.27-3.89,1.57a6.51,6.51,0,0,0-2.12,2.71l-1.53,1.23a24.09,24.09,0,0,0-3.38-2.23,10.63,10.63,0,0,0-3.58-.34A29.62,29.62,0,0,0,61.8,43.4l-3.58-1.11-4.71,4.46L48,47.61l-.21,0-3.41,0C47.47,46,53.6,42.15,53,38a6.2,6.2,0,0,0-1-2.49,5.78,5.78,0,0,0-1-1.15,204.73,204.73,0,0,1,21.7-1.14h.88c5.22,0,10.32.23,15.2.6v0Z"/><path class="cls-3" d="M21.24,39a23.79,23.79,0,0,0-7.53,4.77,4.47,4.47,0,0,1-.92-2.59,5.4,5.4,0,0,1,1.43-3.47,15.47,15.47,0,0,1,2.4-2.23c.09.12.19.23.28.34A13.46,13.46,0,0,0,21.24,39Z"/><path class="cls-3" d="M113.93,23.72c-5.45.43-12.08,4.79-12.08,4.79a49.24,49.24,0,0,0-7.33-4.8h0c-.53-1-1.13-2.07-1.79-3.17A166.6,166.6,0,0,1,113.93,23.72Z"/><path class="cls-3" d="M141.74,39.61v1q0,5.81-.56,11.17l0,.34h0c-1.37,13.87-5,25.62-10.2,35.33l-.46.85a73,73,0,0,1-7.37,10.93l-.6.73a66.48,66.48,0,0,1-23.44,17.87,65.16,65.16,0,0,1-26.84,5.82c-33.48,0-69.51-26.31-69.51-84.07,0-2.21,1.46-4.45,4.21-6.59a37.41,37.41,0,0,1,8.68-4.77,10,10,0,0,0,.51,6.46,15.06,15.06,0,0,0-2.83,2.18,8.55,8.55,0,0,0-1.39,1.89,5.53,5.53,0,0,0-.25,4.83,8.24,8.24,0,0,0,1.24,2l0,0,0,0h0l0,0h0l.64.69a9.47,9.47,0,0,0,.73.69c.5.43,1,.83,1.55,1.21l1.63,1c.27.18.56.31.84.46l.84.44c.28.15.56.3.84.43l.87.38c.58.25,1.15.52,1.74.74,1.17.43,2.34.89,3.54,1.24l1.79.56,1.8.48a125,125,0,0,0,12.35,2.5l.22,0,2,.29c3.29.46,6.6.83,9.91,1.1.91.09,1.83.16,2.74.22l.45,0,.92,0c5.18.35,10.37.48,15.55.44,1.23,0,2.47,0,3.7,0l3.71-.11c2.47-.11,4.94-.23,7.4-.43,4.93-.37,9.85-.9,14.74-1.69a104.29,104.29,0,0,0,14.53-3.34,49.11,49.11,0,0,0,7-2.73c.57-.29,1.14-.57,1.7-.87l1.64-1a15.61,15.61,0,0,0,3-2.52h0a.18.18,0,0,0,0-.07h0A8.82,8.82,0,0,0,133,43.8a5.8,5.8,0,0,0,.53-2.8,5,5,0,0,0-.13-.85,2.05,2.05,0,0,0-.07-.34h0c-.75-3.12-3.8-6.57-5.74-7.44a13.91,13.91,0,0,0-3.07-.72A19,19,0,0,0,123,29.13a15.15,15.15,0,0,0-4.12-4.2c7.23,1.94,12.95,4.29,16.86,6.81S141.74,37,141.74,39.61Z"/><path class="cls-3" d="M159.14,82.69c-8.16,11.54-19.69,17.38-32.68,16.62a77.1,77.1,0,0,0,6.2-9.43C142,89.6,149.29,82.61,153.07,76c4.17-7.29,4.91-14.86,1.93-19.77-1.5-2.48-4.61-5.34-11-5.52.25-2.91.4-5.89.45-8.92a20,20,0,0,1,2.19,0c.38,0,.76,0,1.13.08a19.52,19.52,0,0,1,14.8,9.25C168,59.72,166.69,71.23,159.14,82.69Z"/><path class="cls-4" d="M168.94,37.79c.74-3.1-2.08-4.63-4.23-5.76s-4.37.74-5.87,3.65,2,5.25,2,5.25l-1.24,2.83c-.32-.26-.65-.51-1-.74a22,22,0,0,0-5.55-2.81l.48-2a3.21,3.21,0,0,0,2.9-.5c1.35-.95.79-4.55-1-5.51a10.88,10.88,0,0,0,.2-2.13c-.08-1.47-1.42-4.91-3-6s-2.35-.49-3.82-.82-5.38,2.45-5.66,3.65-.26,1.84-.91,2.35.78,1.11.84,2.3.2,2,.2,2a8.65,8.65,0,0,0,2.5,1.21c1,.18,1.88.4,1.88.4l-.05.35-.52,3.54a25.08,25.08,0,0,0-2.6,0c-.42-6.14-8.09-11.75-21.71-15.85a157.08,157.08,0,0,0-31.82-5.56A59.9,59.9,0,0,0,82.8,7.38C80.22,5,70.93,0,70.93,0L59.86,6.8l-1.11.68s-2,5.63-2.46,6.65-4.84,2.46-6.75,2.26c-2.52-.27-3.36-4-4.82-4.92s-5.81-.8-7.57-.1c-1.56.61-5.53,3.79-5.53,3.79l-1.23,1.09a8.31,8.31,0,0,0-8,1.15l-1.12-.33C20.41,16.8,16,18.13,16,18.13l-5.91-.95a48,48,0,0,1-1.45,7.26A4.43,4.43,0,0,1,8,25.81,5.27,5.27,0,0,1,4.7,27.69l-.4,2.09L3.67,31l-.89,2.18A9.62,9.62,0,0,0,0,39.61c0,26.74,7.79,49.23,22.52,65a67.62,67.62,0,0,0,99.44,0c.83-.89,1.64-1.8,2.43-2.74a39.83,39.83,0,0,0,4.34.23c13,0,24.43-6.22,32.65-17.86a.05.05,0,0,0,0,0c4.27-6.47,6.66-12.93,7.1-19.21a25.53,25.53,0,0,0-3.6-15.35,22.81,22.81,0,0,0-4-4.79l1.28-3.13S168.19,40.89,168.94,37.79ZM150.38,36a1.5,1.5,0,0,0,.41,1.31,5.09,5.09,0,0,0,1.62.72L152,39.86a20.6,20.6,0,0,0-2.2-.5l.37-3.47ZM113.93,23.72c-5.45.43-12.08,4.79-12.08,4.79a49.24,49.24,0,0,0-7.33-4.8h0c-.53-1-1.13-2.07-1.79-3.17A166.6,166.6,0,0,1,113.93,23.72Zm-1.68,15.67s-4.31-4.55-7.3-1.59a10.56,10.56,0,0,0-1.58,2c-.29-.34-1.24-1.44-2.4-2.69-.74-.79-1.56-1.63-2.37-2.37,8.17,1.06,17.39,3.07,23.63,5.44l.89.35Zm16.67,6.12a13.89,13.89,0,0,1-1.7,1.23l-1.52.9c-.52.27-1.06.53-1.59.79s-1.09.5-1.64.73-1.09.48-1.67.67c-1,.38-2.1.77-3.17,1.1l-.12,0-8.35-4.15-1.09-5.09-2.15-.84a4.71,4.71,0,0,1,1.47-.81,4.28,4.28,0,0,1,3.74,1.24C111.87,42,123.38,44.88,128.92,45.51ZM94.46,47.19c5.59,2.63,13.1,3.35,13.1,3.35l.31,2.89c-1.55.33-3.13.61-4.69.88-4.81.82-9.67,1.4-14.54,1.79-2.44.21-4.88.34-7.33.47l-3.67.12c-1.22.05-2.44,0-3.67.06-5.13,0-10.28-.08-15.41-.42a4.17,4.17,0,0,1,1.91-1.89c1.53-.44,8.1-8.21,8.1-8.21s2-.48,3.89-.72a8.71,8.71,0,0,1,2.8,0c2.6.73,2.91,3,7.6,3.87C89.39,50.53,90,45.07,94.46,47.19ZM88.79,33.82v0l1.8.15-.74,1-6.55-.33-3.62,3.75s-3.35,1.27-3.89,1.57a6.51,6.51,0,0,0-2.12,2.71l-1.53,1.23a24.09,24.09,0,0,0-3.38-2.23,10.63,10.63,0,0,0-3.58-.34A29.62,29.62,0,0,0,61.8,43.4l-3.58-1.11-4.71,4.46L48,47.61l-.21,0-3.41,0C47.47,46,53.6,42.15,53,38a6.2,6.2,0,0,0-1-2.49,5.78,5.78,0,0,0-1-1.15,204.73,204.73,0,0,1,21.7-1.14h.88C78.81,33.24,83.91,33.45,88.79,33.82ZM56.58,53.89,54.49,56,54,56c-3.11-.28-6.22-.63-9.31-1.06l-2.26-.34.12-4.2.5-.18s2.36-.54,5.17-.94c3.57-.52,7.86-.82,8.95.49C59.14,52.1,56.58,53.89,56.58,53.89Zm4-45.9L71.65,2.15l11.26,8.4s.92,4-4.41,1.84-6-5.12-9.72-2.35a18.32,18.32,0,0,1-8.66,3.34c-.34,0-.54-.05-.55-.17A11.19,11.19,0,0,1,60.59,8ZM37.85,19.56l7.9-.41s.45.55,1.09,1.28c.15.17.31.36.48.54a14.82,14.82,0,0,0,3,2.78c.77.39,2.35-1.47,4.46-3.48l.71-.66a21.35,21.35,0,0,1,3-2.31,10.91,10.91,0,0,1,2.13-1c.24-.08.49-.15.74-.21a5.17,5.17,0,0,1,3.66.93,18.4,18.4,0,0,1,2.74,2c.23.19.45.4.67.61a116.48,116.48,0,0,1,10,11.57l-1.29,0c-1.49,0-3,0-4.53,0a204.61,204.61,0,0,0-24.65,1.44,28,28,0,0,0-6.61-1.4c0-.2,0-.4,0-.6a12.91,12.91,0,0,0-2.69-8.46l-.44-.54a14.83,14.83,0,0,0-1.88-1.81l-.19-.16Zm1.51,28.5,0,.26,0,0L34,53l-.23-.06c-.53-.12-1.06-.26-1.59-.39L32,43.8C34,47,39.36,48.06,39.36,48.06Zm-.22,3.73L39,54c-1.09-.21-2.18-.42-3.26-.66.93-.48,2.18-1,3.38-1.54ZM24.34,40a10.19,10.19,0,0,0,3.08.1L27.6,51.2A46.27,46.27,0,0,1,17,46.72s-1-.66-1.44-1a5.54,5.54,0,0,1-.45-.37.76.76,0,0,0,.13-.23C17.13,43.22,20.24,41.49,24.34,40Zm-3.1-1a23.79,23.79,0,0,0-7.53,4.77,4.47,4.47,0,0,1-.92-2.59,5.4,5.4,0,0,1,1.43-3.47,15.47,15.47,0,0,1,2.4-2.23c.09.12.19.23.28.34A13.46,13.46,0,0,0,21.24,39ZM5.62,30A4.56,4.56,0,0,0,7,28.09a15.5,15.5,0,0,1,1.63-2c.29-.31.61-.65,1-1,2-2,2.06-6.76,2.06-6.76l4.45,1.11A21.39,21.39,0,0,1,21,18.53a16.12,16.12,0,0,0-2.07,2.35c-.63.12-1.29.21-1.95.33-1.72.31-2.91,3.6-3.33,4.93-.11.34-.16.55-.16.55S6.6,30.88,5.58,30.88H5.52l-.18-.05C4.77,30.63,4.86,30.45,5.62,30Zm117.5,69.3-.6.73a66.48,66.48,0,0,1-23.44,17.87,65.16,65.16,0,0,1-26.84,5.82c-33.48,0-69.51-26.31-69.51-84.07,0-2.21,1.46-4.45,4.21-6.59a37.41,37.41,0,0,1,8.68-4.77,10,10,0,0,0,.51,6.46,15.06,15.06,0,0,0-2.83,2.18,8.55,8.55,0,0,0-1.39,1.89,5.53,5.53,0,0,0-.25,4.83,8.24,8.24,0,0,0,1.24,2l0,0,0,0h0l0,0h0l.64.69a9.47,9.47,0,0,0,.73.69c.5.43,1,.83,1.55,1.21l1.63,1c.27.18.56.31.84.46l.84.44c.28.15.56.3.84.43l.87.38c.58.25,1.15.52,1.74.74,1.17.43,2.34.89,3.54,1.24l1.79.56,1.8.48a125,125,0,0,0,12.35,2.5l.22,0,2,.29c3.29.46,6.6.83,9.91,1.1.91.09,1.83.16,2.74.22l.45,0,.92,0c5.18.35,10.37.48,15.55.44,1.23,0,2.47,0,3.7,0l3.71-.11c2.47-.11,4.94-.23,7.4-.43,4.93-.37,9.85-.9,14.74-1.69a104.29,104.29,0,0,0,14.53-3.34,49.11,49.11,0,0,0,7-2.73c.57-.29,1.14-.57,1.7-.87l1.64-1a15.61,15.61,0,0,0,3-2.52h0a.18.18,0,0,0,0-.07h0A8.82,8.82,0,0,0,133,43.8a5.8,5.8,0,0,0,.53-2.8,5,5,0,0,0-.13-.85,2.05,2.05,0,0,0-.07-.34h0c-.75-3.12-3.8-6.57-5.74-7.44a13.91,13.91,0,0,0-3.07-.72A19,19,0,0,0,123,29.13a15.15,15.15,0,0,0-4.12-4.2c7.23,1.94,12.95,4.29,16.86,6.81s6,5.22,6,7.87v1q0,5.81-.56,11.17l0,.34h0c-1.37,13.87-5,25.62-10.2,35.33l-.46.85A73,73,0,0,1,123.12,99.26Zm20.62-45.81c4.28.07,7.27,1.48,8.93,4.2,2.42,4,1.65,10.68-2,17-3.18,5.56-9.06,11.43-16.53,12.38A97.21,97.21,0,0,0,143.74,53.45Zm18.84-2.35c5.37,8.62,4.11,20.13-3.44,31.59-8.16,11.54-19.69,17.38-32.68,16.62a77.1,77.1,0,0,0,6.2-9.43C142,89.6,149.29,82.61,153.07,76c4.17-7.29,4.91-14.86,1.93-19.77-1.5-2.48-4.61-5.34-11-5.52.25-2.91.4-5.89.45-8.92a20,20,0,0,1,2.19,0c.38,0,.76,0,1.13.08A19.52,19.52,0,0,1,162.58,51.1Z"/><path class="cls-4" d="M22.15,12.6c-.27.28-1,.23-1,.23a2.25,2.25,0,0,1-.85.87,2.44,2.44,0,0,1-1.84,0,4,4,0,0,0-1,.78,1.24,1.24,0,0,1-2-.13c-.8-1.53,1.45-1.61,1.45-1.61a2.34,2.34,0,0,1,.28-.87,2.61,2.61,0,0,1,2.62-1.21,7.12,7.12,0,0,0,1.45.36C22.32,11.23,22.46,12.26,22.15,12.6Z"/><path class="cls-4" d="M8.07,14.41c-.78.13-.55.76-1,1.15s-.89-.33-1.59.13S4.09,17.13,3.21,17.3s-1.23.11-1.39-.24a1.42,1.42,0,0,1,.63-2.15,2.92,2.92,0,0,1,1-.37,1.31,1.31,0,0,1,.37-.76,3.24,3.24,0,0,1,1.35-.49,1.34,1.34,0,0,1,.95-.55c.61,0,3.7.15,3.55.5A2.39,2.39,0,0,1,8.07,14.41Z"/></g></g></svg>