<?xml version="1.0" encoding="utf-8"?>
<!-- Generator: Adobe Illustrator 25.3.0, SVG Export Plug-In . SVG Version: 6.00 Build 0)  -->
<svg version="1.1" id="Layer_1" xmlns="http://www.w3.org/2000/svg" xmlns:xlink="http://www.w3.org/1999/xlink" x="0px" y="0px"
	 viewBox="0 0 260 260" style="enable-background:new 0 0 260 260;" xml:space="preserve">
<style type="text/css">
	.st0{display:none;fill:#D34A37;}
	.st1{fill:#D34A37;}
</style>
<path class="st0" d="M164.6,64H95.4C78.1,64,64,78.1,64,95.4v69.2c0,17.3,14.1,31.4,31.4,31.4h69.2c17.3,0,31.4-14.1,31.4-31.4V95.4
	C196,78.1,181.9,64,164.6,64z M130,171.1c-22.7,0-41.1-18.4-41.1-41.1s18.4-41.1,41.1-41.1s41.1,18.4,41.1,41.1
	S152.7,171.1,130,171.1z M172.2,97.3c-5.3,0-9.6-4.3-9.6-9.6c0-5.3,4.3-9.6,9.6-9.6c5.3,0,9.6,4.3,9.6,9.6
	C181.8,93,177.5,97.3,172.2,97.3z M130,102.9c-14.9,0-27.1,12.2-27.1,27.1s12.2,27.1,27.1,27.1s27.1-12.2,27.1-27.1
	S144.9,102.9,130,102.9z M130,2C59.3,2,2,59.3,2,130s57.3,128,128,128s128-57.3,128-128S200.7,2,130,2z M210,164.6
	c0,25-20.4,45.4-45.4,45.4H95.4c-25,0-45.4-20.4-45.4-45.4V95.4C50,70.4,70.4,50,95.4,50h69.2c25,0,45.4,20.4,45.4,45.4V164.6z"/>
<path class="st1" d="M122.2,117.1c-3.4,1.4-6.1,3.5-8.1,6.4c-2,2.8-3,6.3-3,10.3c0,5.2,2.2,9.1,6.5,12c4.1,2.6,8.4,3.3,12.9,2
	c5.2-1.5,8.7-5.2,10.6-11.1c0.9-2.7,1.3-5.7,1.3-9.1V113c-3.7,0.1-7.1,0.5-10.3,1.1S125.5,115.7,122.2,117.1L122.2,117.1z M130,0
	C58.2,0,0,58.2,0,130s58.2,130,130,130s130-58.2,130-130S201.8,0,130,0z M140.4,76.2c-2.1-3.2-5.8-4.8-11.2-4.8
	c-0.4,0-0.9,0-1.5,0.1c-0.6,0.1-1.9,0.4-3.7,1.1c-1.8,0.7-3.6,1.5-5.2,2.6c-1.6,1.1-3.3,2.9-5.2,5.3c-1.9,2.5-3.3,5.3-4.4,8.6
	l-27.3-2.4c0-3.6,0.7-7.2,2-10.7c1.4-3.5,3.4-6.9,6.2-10.2c2.8-3.3,6.1-6.1,10-8.5c3.9-2.5,8.6-4.4,14-5.9
	c5.5-1.5,11.3-2.2,17.7-2.2c6.2,0,11.8,0.8,16.8,2.2c5,1.5,9,3.3,12,5.5c2.9,2.1,5.4,4.6,7.5,7.5c2,2.8,3.4,5.4,4.2,7.7
	c0.8,2.4,1.2,4.6,1.2,6.6v53c0,1.9,0.4,3.8,1.2,5.7c0.8,2,1.8,3.7,3,5.2c1.1,1.5,2.3,2.9,3.5,4.1c1.2,1.2,2.2,2.2,3.1,2.9l1.2,1
	l-21,20.1c-2.5-2.2-4.9-4.5-7.3-6.8c-2.4-2.3-4.2-4.1-5.4-5.3l-1.8-1.8c-0.7-0.7-1.5-1.7-2.3-3c-2.4,3.5-5.4,6.6-9,9.2
	c-3.7,2.6-7.6,4.5-11.8,5.7c-4.2,1.2-8.5,1.9-13,2.1s-8.7-0.4-12.7-1.9c-4-1.5-7.7-3.4-10.9-5.9s-5.8-5.9-7.7-10.2
	c-1.9-4.3-2.9-9.1-2.9-14.6c0-5,0.9-9.7,2.6-13.8c1.7-4.2,3.9-7.7,6.7-10.5c2.7-2.8,6-5.3,9.9-7.5c3.9-2.2,7.7-3.9,11.4-5.1
	c3.7-1.2,7.7-2.3,12-3.1c4.3-0.8,8-1.4,11.1-1.7c3.1-0.3,6.2-0.5,9.2-0.6V85C142.3,81,141.7,78.1,140.4,76.2L140.4,76.2z
	 M192.8,186.4c-0.8,1-2.2,2.3-4.1,3.9c-1.9,1.7-4.9,3.7-8.9,6.1c-4,2.4-8.4,4.6-13.1,6.6c-4.7,2-10.5,3.7-17.4,5.2
	c-6.9,1.5-14,2.2-21.3,2.2c-7.4,0-14.7-0.9-22.1-2.8c-7.4-1.9-13.8-4.1-19.4-6.9c-5.5-2.7-10.9-5.9-16-9.3
	c-5.1-3.5-9.2-6.6-12.3-9.4c-3.1-2.8-5.7-5.4-7.8-7.9c-0.5-0.6-0.8-1-0.9-1.5s-0.1-0.8,0.1-1.1c0.2-0.3,0.4-0.5,0.8-0.6
	c0.7-0.3,1.5-0.2,2.1,0.2c11.9,7,21.2,12,27.8,14.9c24.1,10.6,48.8,13.3,74.1,8.1c11.8-2.4,23.8-6.4,36.2-12.1
	c0.9-0.3,1.7-0.4,2.4-0.3s1,0.7,1,1.6C194.2,184.2,193.7,185.3,192.8,186.4L192.8,186.4z M210.1,178c-0.5,3.2-1.4,6.3-2.6,9.2
	c-2.1,5-4.7,8.7-7.9,11.1c-1,0.8-1.9,1.1-2.4,0.8c-0.6-0.3-0.6-1,0-2.1c1.3-2.7,2.7-6.3,4.1-10.9c1.5-4.6,1.7-7.5,0.6-8.9
	c-0.3-0.4-0.8-0.8-1.5-1c-0.6-0.3-1.5-0.4-2.5-0.6s-1.9-0.2-2.7-0.2c-0.8-0.1-1.9-0.1-3.3,0c-1.4,0.1-2.3,0.1-2.9,0.2
	c-1.7,0.2-3.3,0.3-5,0.4c-0.4,0.1-0.8,0.1-1.2,0.1c-0.4,0-0.8,0.1-1,0.1l-0.8,0.1c-0.3,0-0.5,0.1-0.6,0.1h-0.9l-0.3-0.1l-0.2-0.1
	l-0.1-0.3c-0.4-1,1.1-2.1,4.4-3.6c3.3-1.5,6.5-2.4,9.5-2.7c2.8-0.4,6.2-0.4,10-0.1c3.8,0.3,6.2,1.1,7.1,2.1
	C210.6,172.7,210.7,174.8,210.1,178L210.1,178z"/>
</svg>
