<svg xmlns="http://www.w3.org/2000/svg" viewBox="0 0 105.69 106.13"><defs><style>.cls-1{fill:#231f20;}</style></defs><g id="Calque_2" data-name="Calque 2"><g id="Calque_4" data-name="Calque 4"><path class="cls-1" d="M62.84,83.23a14.94,14.94,0,0,1-2.64,7.16v0A14.66,14.66,0,0,1,48,97.07c-.53,0-1.07,0-1.62-.08l-.28,0-.1,0a.51.51,0,0,1-.34-.54.36.36,0,0,1,0-.11h0a.56.56,0,0,1,.23-.27.49.49,0,0,1,.32-.07l.43,0h.09l.4,0c4.85.28,9.15-1.9,12.19-6.2,2.82-4.28,3.29-8.57,1.29-11.79a7.32,7.32,0,0,0-5.52-3.45h0l-.42,0a7.42,7.42,0,0,0-.82,0l-.44,0h-.08a.5.5,0,0,1-.49-.44s0,0,0,0h0v-.06h0a.51.51,0,0,1,.45-.47h0l.54,0a7.69,7.69,0,0,1,1,0c.35,0,.68.06,1,.11a7.68,7.68,0,0,1,.83.19l.42.13a8.24,8.24,0,0,1,2.07,1c.18.13.36.26.53.41a8.32,8.32,0,0,1,1.8,2.06A9.45,9.45,0,0,1,62.84,83.23Z"/><path class="cls-1" d="M57.09,87.33C55.68,89.8,53,92.4,49.48,92.51H49a.5.5,0,0,1-.37-.49.15.15,0,0,1,0-.07.48.48,0,0,1,.17-.32h0l.05,0h1l.1,0c2.79-.35,5-2.54,6.17-4.61,1.35-2.36,1.63-4.85.73-6.34a3.64,3.64,0,0,0-3.33-1.57h-.67l-.08,0h0l0,0h0v0h0l0,0h0v-.07l0,0h0v0s0,0,0,0h0a.29.29,0,0,1,0-.09h0s0-.09,0-.13h0a.51.51,0,0,1,.48-.39h.58A4.59,4.59,0,0,1,57.81,80C58.92,81.79,58.64,84.62,57.09,87.33Z"/><path class="cls-1" d="M5.34,75.59h0v0Z"/><path class="cls-1" d="M49.59,75.32a3.27,3.27,0,0,1-.54.81h0l0,0h0a6.2,6.2,0,0,1-1.13.94l-.62.38-.63.32a17.76,17.76,0,0,1-2.62,1,37.48,37.48,0,0,1-5.41,1.24c-1.83.3-3.66.5-5.5.64-.92.07-1.84.11-2.76.16L29,80.9l-1.39,0a75.47,75.47,0,0,1-11-.69l-.75-.11-.08,0a45.32,45.32,0,0,1-4.61-.93L10.45,79l-.67-.21c-.45-.13-.88-.3-1.32-.46-.22-.08-.43-.18-.65-.27l-.32-.15-.32-.16-.31-.16-.31-.17L5.94,77l.21.06h0L5.94,77a6,6,0,0,1-.58-.45,3.2,3.2,0,0,1-.27-.25l-.24-.26h0v0h0a3,3,0,0,1-.46-.77,2.06,2.06,0,0,1-.16-.92,2,2,0,0,1,.25-.88,2.84,2.84,0,0,1,.52-.7,5.42,5.42,0,0,1,1-.82l.3-.17a11.7,11.7,0,0,1,1.49-.67.06.06,0,0,1,.07,0,.05.05,0,0,1,0,.07A15.5,15.5,0,0,0,6.47,72l-.27.2a6,6,0,0,0-.9.83,2,2,0,0,0-.53,1.3,1.65,1.65,0,0,0,.34,1l0,0,.17.21h0l0,0h0l0,0,0,0h0l.22.22.08.07.16.14a5.22,5.22,0,0,0,.54.38l-.21-.06h0l.2.06a17.42,17.42,0,0,0,3.94,1.67c.35.11.69.21,1,.3l.68.19h0l.6.14.16,0,.42.09c.45.1.9.2,1.36.28s.85.16,1.28.22l.84.13c1.16.16,2.32.29,3.48.4l1.57.12q2.93.2,5.87.16c.45,0,.91,0,1.37,0l1.37,0c.91,0,1.82-.09,2.73-.17,1.82-.15,3.63-.36,5.42-.67q.89-.15,1.77-.33a35.79,35.79,0,0,0,3.53-.9l.09,0c.4-.12.79-.27,1.18-.41.22-.07.42-.17.63-.25s.41-.17.61-.27l.59-.3.57-.33a5.42,5.42,0,0,0,1-.78h0a1.9,1.9,0,0,0,.57-1.3,1.7,1.7,0,0,0-.19-.68,3.5,3.5,0,0,0-.46-.65c-.1-.09-.19-.2-.3-.29l-.32-.27q-.33-.27-.69-.51c-.49-.33-1-.62-1.52-.92a.05.05,0,0,1,0-.08.06.06,0,0,1,.07,0,9.22,9.22,0,0,1,1.69.61l.41.21c.13.08.27.15.4.24a5,5,0,0,1,.75.57,3.32,3.32,0,0,1,.62.76,2.48,2.48,0,0,1,.24.55h0a2.36,2.36,0,0,1,.08.45A2.15,2.15,0,0,1,49.59,75.32Z"/><path class="cls-1" d="M53.17,78.92a0,0,0,0,1,0,0H53a0,0,0,0,1,0,0h0l-.08,0a0,0,0,0,1,0,0h0l0,0h0v0l0,0s0,0,0,0v0s0,0,0,0,0,0,0,0l0,0h0a0,0,0,0,1,0,0s0,0,0,0h0a.29.29,0,0,1,0-.09,34.94,34.94,0,0,1-3.8,13.17h0l.05,0h1l.1,0a36.16,36.16,0,0,0,3.57-12.52ZM21.26,65.47c-1.37.09-2.71.21-4,.37-.87.1-2.51.36-3.65.54l-.44.07-.27,0s1.4.69,1.46.76h.11c.55-.07,2.55-.35,2.81-.37a38.54,38.54,0,0,1,4-.44c0-.33.08-.66.13-1Zm32.18,9.15h-.08a.5.5,0,0,1-.49-.44s0,0,0,0c0,1.44-.08,2.83-.21,4.16a.53.53,0,0,1,0,.13h0a34.94,34.94,0,0,1-3.8,13.17l-.17.32A28.23,28.23,0,0,1,45.92,96a.49.49,0,0,1,.32-.07l.43,0h.09l.4,0a30.14,30.14,0,0,0,2.32-3.52c0-.08.08-.16.13-.24.15-.27.29-.55.43-.83a36.16,36.16,0,0,0,3.57-12.52,1.79,1.79,0,0,0,0-.23c0-.26.06-.52.08-.79.09-1.08.15-2.19.17-3.32Zm-7.66-7a58.1,58.1,0,0,0-11.07-2c0,.33,0,.67-.05,1a63.56,63.56,0,0,1,7.83,1.18l1.85.45a23.21,23.21,0,0,1,6.29,2.54c1.46.94,2.24,2,2.24,2.94,0,.1,0,.21,0,.32v.06c0,1.44-.08,2.83-.21,4.16a.53.53,0,0,1,0,.13h0a34.94,34.94,0,0,1-3.8,13.17l-.17.32A28.23,28.23,0,0,1,45.92,96l-.23.27A24.81,24.81,0,0,1,37,103a24.29,24.29,0,0,1-10,2.17C14.46,105.12,1,95.3,1,73.76c0-1.47,1.72-3,4.8-4.24a35.19,35.19,0,0,1,5.65-1.71c.91-.19,1.87-.38,2.88-.55h.11a1.63,1.63,0,0,0-.17-.2,4.91,4.91,0,0,0-.69-.67h0l-.43.08-.27,0-.9.17q-1.28.27-2.46.57l-1.43.4c-.67.21-1.3.42-1.9.64l-1.13.45a12.15,12.15,0,0,0-4,2.63,3.71,3.71,0,0,0-1,2.4C0,83.73,2.9,92.12,8.4,98a25.24,25.24,0,0,0,37.09,0q.46-.51.9-1l.18-.22c.2-.24.4-.49.59-.74a30.14,30.14,0,0,0,2.32-3.52c0-.08.08-.16.13-.24.15-.27.29-.55.43-.83a36.16,36.16,0,0,0,3.57-12.52,1.79,1.79,0,0,0,0-.23c0-.26.06-.52.08-.79.09-1.08.15-2.19.17-3.32v-1C53.72,71.26,50.86,69.17,45.78,67.64Zm7.39,11.28a0,0,0,0,1,0,0H53a0,0,0,0,1,0,0h0l-.08,0a0,0,0,0,1,0,0h0l0,0h0v0l0,0s0,0,0,0v0s0,0,0,0,0,0,0,0l0,0h0a0,0,0,0,1,0,0s0,0,0,0h0a.29.29,0,0,1,0-.09,34.94,34.94,0,0,1-3.8,13.17h0l.05,0h1l.1,0a36.16,36.16,0,0,0,3.57-12.52Z"/><path class="cls-1" d="M20.85,73.81c0,.31,0,.62,0,.93-1.68.12-3.28.3-4.76.53a42.37,42.37,0,0,0-8.15,1.94l-.15.06a4.47,4.47,0,0,0-1.41-.43l.42-.19h0a39.69,39.69,0,0,1,9.13-2.3C17.46,74.11,19.12,73.93,20.85,73.81Z"/><path class="cls-1" d="M46.93,77.12a4.28,4.28,0,0,0-.83.62q-.29-.17-.63-.33a21.33,21.33,0,0,0-6-1.85c-1.64-.27-3.36-.49-5.13-.65,0-.31,0-.62,0-.93,1.8.17,3.57.39,5.24.66a21.43,21.43,0,0,1,7,2.27Z"/><path class="cls-1" d="M28.51,77.88c-.52,0-1,0-1.53,0-6.63-.15-6.64-1.25-6.64-1.67V73.81a69.8,69.8,0,0,1,.44-7.43c0-.34.09-.67.14-1,1.57-11.24,6.85-16.55,17.64-17.74l.91-.1-.41.82a7.14,7.14,0,0,0-.67,2.41l0,.13-.07.1c-2.1,3-2.74,7.87-3.1,14.67,0,.32,0,.66-.05,1,0,1.2-.1,2.46-.16,3.77L34.86,74c0,.31,0,.63,0,.94,0,.53,0,1.09-.07,1.66C34.69,77.62,31.6,77.88,28.51,77.88ZM21.34,76.1c1,.9,10.93,1.11,12.42.29q0-.77.06-1.5c0-.32,0-.62,0-.93L34,70.41c.06-1.31.11-2.57.16-3.78,0-.35,0-.68.05-1,.37-6.9,1-11.84,3.21-15.08a8.44,8.44,0,0,1,.41-1.8C28,50.06,23.4,55,21.92,65.53c-.05.32-.09.64-.13,1a65.32,65.32,0,0,0-.44,7.32Z"/><path class="cls-1" d="M104.6,73c-1.67-.25-6.25-.87-11.38-1.21l-4.83-.28c-6.24-.35-12.69-.71-16.64-1.87-7.83-2.32-16.06-10.24-21-15-2.63-2.54-3.83-3.67-4.53-3.82a19.37,19.37,0,0,0-4-.39,27.76,27.76,0,0,0-3.83.28,7.27,7.27,0,0,1,.67-2.34A3.63,3.63,0,0,1,41,46.48a19.65,19.65,0,0,1,9.7-1.16c2.21.36,12.12,4.08,16,6.29a.71.71,0,0,0,.81,0c.49-.38.31-1.13-.26-3.36-.76-3-2-8.07-1.46-13A43.14,43.14,0,0,1,69.3,22a31.83,31.83,0,0,1,8.34-11,5.53,5.53,0,0,0,2.25.47A5.73,5.73,0,0,0,85.6,6a45.08,45.08,0,0,1,19.09-3.67v0a5.31,5.31,0,0,1,1,.09v-1l-.46,0A45.64,45.64,0,0,0,84.9,5.22l-.29.17v.32a4.73,4.73,0,0,1-4.72,4.72,4.49,4.49,0,0,1-2.1-.51l-.3-.15-.25.22A32.61,32.61,0,0,0,68.4,21.58a44.17,44.17,0,0,0-3.67,13.58c-.59,5.09.71,10.26,1.49,13.34.19.74.38,1.5.47,2-4.25-2.31-13.6-5.79-15.84-6.15a20.2,20.2,0,0,0-10.24,1.22,4.64,4.64,0,0,0-2.44,2.36,8.29,8.29,0,0,0-.77,2.74c0,.4,0,.64,0,.64v.61l.6-.12a23.16,23.16,0,0,1,8.06,0c.46.1,2.29,1.86,4.06,3.56,5,4.79,13.32,12.81,21.39,15.2,4.06,1.2,10.57,1.56,16.87,1.91,1.63.08,3.26.17,4.82.28,6.37.42,11.9,1.29,12,1.29l.39.06"/><path class="cls-1" d="M27.84,79.63c-.42,0-.82,0-1.21,0-7.54-.31-9.19-1.72-9.35-1.88a.48.48,0,0,1,0-.7A.49.49,0,0,1,18,77c.06,0,1.68,1.31,8.71,1.6a31.68,31.68,0,0,0,10.12-1.18.5.5,0,1,1,.34.94A32.06,32.06,0,0,1,27.84,79.63Z"/><path class="cls-1" d="M69.14,22.29h-.29a.51.51,0,0,1-.5-.51.49.49,0,0,1,.5-.49.94.94,0,0,1,.29,0c8.27,0,15.54-4,21.57-7.95a27.15,27.15,0,0,0,9.42-11.55.5.5,0,1,1,.93.35,27.63,27.63,0,0,1-9.81,12C85.1,18.19,77.67,22.29,69.14,22.29Z"/><path class="cls-1" d="M79.89,11.43a5.72,5.72,0,1,1,5.72-5.76v0A5.73,5.73,0,0,1,79.89,11.43ZM79.89,1a4.71,4.71,0,0,0-2.11,8.92,4.56,4.56,0,0,0,2.11.51,4.73,4.73,0,0,0,4.72-4.72l.5,0h-.5A4.73,4.73,0,0,0,79.89,1Z"/></g></g></svg>