<svg xmlns="http://www.w3.org/2000/svg" viewBox="0 0 69.31 94.87"><defs><style>.cls-1{fill:#071a20;}.cls-2{fill:#fec62e;}</style></defs><g id="Calque_2" data-name="Calque 2"><g id="Calque_6" data-name="Calque 6"><path class="cls-1" d="M69.31,34.66a34.4,34.4,0,0,1-6.34,20l-.06.1L36.59,93.84a2.34,2.34,0,0,1-3.88,0L7,55.57A34.67,34.67,0,0,1,34.65,0,34.7,34.7,0,0,1,69.31,34.66Zm-7.15,19.4A33.66,33.66,0,1,0,1,34.66,33.42,33.42,0,0,0,7.81,55l.06.08L33.54,93.28a1.38,1.38,0,0,0,2.22,0Z"/><path class="cls-2" d="M68.31,34.66a33.49,33.49,0,0,1-6.15,19.4L35.76,93.28a1.38,1.38,0,0,1-2.22,0L7.87,55.06,7.81,55a33.66,33.66,0,1,1,60.5-20.32Zm-14.57.86c0-.28,0-.57,0-.86a19.11,19.11,0,0,0-11-17.3,18.83,18.83,0,0,0-8.11-1.82A19.15,19.15,0,0,0,15.53,34.66c0,.33,0,.66,0,1l.06.76a17.22,17.22,0,0,0,.45,2.71,6.69,6.69,0,0,0,.2.77,19.13,19.13,0,0,0,8.09,10.86,5.27,5.27,0,0,0,.59.37,14.82,14.82,0,0,0,1.9,1,1.34,1.34,0,0,0,.24.12,19.08,19.08,0,0,0,7.57,1.56,18.5,18.5,0,0,0,4.24-.48,17.51,17.51,0,0,0,2.61-.79c.46-.18.91-.37,1.35-.59a18.78,18.78,0,0,0,5.09-3.53,19.13,19.13,0,0,0,4-5.69,3.82,3.82,0,0,0,.21-.46A18.77,18.77,0,0,0,53.74,35.52Z"/><path class="cls-1" d="M53.76,34.66c0,.29,0,.58,0,.86a18.77,18.77,0,0,1-1.55,6.71,3.82,3.82,0,0,1-.21.46,19.13,19.13,0,0,1-4,5.69,18.78,18.78,0,0,1-5.09,3.53L42.42,51a18.19,18.19,0,0,0,4.7-3.25,2.11,2.11,0,0,0-.59-.26,4,4,0,0,0-1.29,0l-.11-.75.69-.55a2.85,2.85,0,0,1,1-1.22c.24-.14,1.75-.71,1.75-.71l1.63-1.69.75,0a5.11,5.11,0,0,0,.22-.48c-1.73-.11-3.52-.16-5.34-.17h-.4v-.91h2l.58,0a51.27,51.27,0,0,0-4.52-5.21l-.3-.27A8,8,0,0,0,42,34.7a2.51,2.51,0,0,0-1.41-.44L40.41,33a8.8,8.8,0,0,0,3.21-1.42c1.65-1.24,2,.09,4.37,1.06s2-.83,2-.83L44.91,28l-5,2.63-.33-.54,5-3.05a44.31,44.31,0,0,1,5.34,3.32,32.32,32.32,0,0,1,2.83,3.71A18.15,18.15,0,0,0,42.36,18.26l.4-.9A19.11,19.11,0,0,1,53.76,34.66Z"/><path class="cls-1" d="M45.38,41.07V42a91.61,91.61,0,0,0-9.76.52,2.42,2.42,0,0,1,.45.51,2.85,2.85,0,0,1,.43,1.12c.29,1.87-2.47,3.61-3.87,4.36l1.54,0,2.58-.4,2.12-2,1.61.5a13.28,13.28,0,0,1,1.52-1,4.77,4.77,0,0,1,1.61.16,10.14,10.14,0,0,1,1.52,1l.11.75c-.84.11-1.72.32-1.72.32s-3,3.49-3.64,3.69a1.6,1.6,0,0,0-.75.68A17.93,17.93,0,0,0,42.42,51l.43.89c-.44.22-.89.41-1.35.59a17.51,17.51,0,0,1-2.61.79,18.5,18.5,0,0,1-4.24.48,19.08,19.08,0,0,1-7.57-1.56,1.34,1.34,0,0,1-.24-.12,14.82,14.82,0,0,1-1.9-1,5.27,5.27,0,0,1-.59-.37,19.13,19.13,0,0,1-8.09-10.86,6.69,6.69,0,0,1-.2-.77,17.22,17.22,0,0,1-.45-2.71l-.06-.76c0-.32,0-.65,0-1A19.15,19.15,0,0,1,34.65,15.54a18.83,18.83,0,0,1,8.11,1.82l-.4.9a18.13,18.13,0,0,0-25.29,12,1,1,0,0,1,.32,0,.6.6,0,0,1,.29-.25,1.33,1.33,0,0,1,.64,0,.61.61,0,0,1,.49-.06c.26.09,1.51.72,1.38.83a1,1,0,0,1-.86.21c-.34-.08-.36.22-.61.3s-.31-.29-.68-.22-.81.33-1.21.26a17.6,17.6,0,0,0-.3,3.27c0,.15,0,.29,0,.44.41-.21.69-.33.69-.33l2.66.43a9.84,9.84,0,0,1,2.34-.48,4.34,4.34,0,0,0,.5.15,3.71,3.71,0,0,1,3.62-.51l.55-.5a17.1,17.1,0,0,1,2.49-1.7,5.14,5.14,0,0,1,3.4.05c.66.41,1,2.09,2.17,2.21.86.09,2.81-.56,3-1s1.1-3,1.1-3l.5-.31.33.54A5.11,5.11,0,0,0,39.47,33c0,.11.39.1.94,0l.13,1.28a.65.65,0,0,0-.24,0,4.29,4.29,0,0,0-1.29.55,8.59,8.59,0,0,0-1.36,1l-.32.29c-.95.91-1.66,1.74-2,1.57A6.69,6.69,0,0,1,34,36.48l-.21-.24c-.29-.33-.49-.58-.49-.58l-3.56.18-.71,0,.09.07a7.29,7.29,0,0,1,.84.82l.2.24a5.79,5.79,0,0,1,1.21,3.8c0,.09,0,.18,0,.27a12.85,12.85,0,0,1,3,.63A93.69,93.69,0,0,1,45.38,41.07ZM38.13,51.28a1.23,1.23,0,0,0,.27-1.85c-.87-1.06-6.35.2-6.35.2l-.22.08,0,2.82h0l.88.12.16,0q.9.09,1.83.09a17.49,17.49,0,0,0,2.91-.24Zm-7.76-2.5v-.12s-2.43-.47-3.3-1.91v4.36l.39.18,2.89-2.5Zm-.09,3.45V50.34c-.34.14-1.37.73-2.19,1.2A16.38,16.38,0,0,0,30.28,52.23ZM25,49.94,25,45.06a4.41,4.41,0,0,1-1.38,0h0c-2.79-.53-2-2.08-3.72-2.34l.05,0a4.51,4.51,0,0,1-.23-2.91,5,5,0,0,1-2.37.26A18.12,18.12,0,0,0,25,49.94ZM22.1,35.38a9.46,9.46,0,0,0-2.17.38l-2-.5s-.62.25-1.36.61a17.49,17.49,0,0,0,.52,3.25c.76,0,1.64-.07,1.64-.07s0-.09.07-.25c.19-.59.72-2.07,1.5-2.21l.87-.15A7.93,7.93,0,0,1,22.1,35.38Z"/><path class="cls-1" d="M25.37,32a.47.47,0,0,1,.11.8c-.16.07-.45-.08-.45-.08a1,1,0,0,1-.51.21,1.08,1.08,0,0,1-.76-.31,1.51,1.51,0,0,0-.56.14c-.3.11-.78,0-.81-.41-.07-.77.88-.41.88-.41a1,1,0,0,1,.27-.31,1.18,1.18,0,0,1,1.3,0A3.26,3.26,0,0,0,25.37,32Z"/></g></g></svg>